<?xml version="1.0" standalone="no"?>
<!DOCTYPE svg PUBLIC "-//W3C//DTD SVG 20010904//EN"
 "http://www.w3.org/TR/2001/REC-SVG-20010904/DTD/svg10.dtd">
<svg version="1.0" xmlns="http://www.w3.org/2000/svg"
 width="1320.000000pt" height="20.000000pt" viewBox="0 0 1320.000000 20.000000"
 preserveAspectRatio="xMidYMid meet">

<g transform="translate(0.000000,20.000000) scale(0.100000,-0.100000)"
fill="#000000" stroke="none">
<path d="M155 109 c8 -23 15 -52 15 -65 0 -13 5 -24 10 -24 6 0 10 11 10 24 0
13 7 42 15 65 12 36 12 41 0 41 -8 0 -15 -9 -15 -20 0 -11 -4 -20 -10 -20 -5
0 -10 9 -10 20 0 11 -7 20 -15 20 -12 0 -12 -5 0 -41z"/>
<path d="M505 109 c8 -23 15 -52 15 -65 0 -13 5 -24 10 -24 6 0 10 11 10 24 0
13 7 42 15 65 12 36 12 41 0 41 -8 0 -15 -9 -15 -20 0 -11 -4 -20 -10 -20 -5
0 -10 9 -10 20 0 11 -7 20 -15 20 -12 0 -12 -5 0 -41z"/>
<path d="M580 95 c0 -43 4 -56 19 -65 37 -19 51 -3 51 61 0 33 -4 59 -10 59
-5 0 -10 -22 -10 -49 0 -28 -4 -53 -10 -56 -6 -4 -10 15 -10 49 0 43 -3 56
-15 56 -12 0 -15 -13 -15 -55z"/>
<path d="M670 95 c0 -43 4 -56 19 -65 37 -19 51 -3 51 61 0 33 -4 59 -10 59
-5 0 -10 -22 -10 -49 0 -28 -4 -53 -10 -56 -6 -4 -10 15 -10 49 0 43 -3 56
-15 56 -12 0 -15 -13 -15 -55z"/>
<path d="M855 109 c8 -23 15 -52 15 -65 0 -13 5 -24 10 -24 6 0 10 11 10 24 0
13 7 42 15 65 12 36 12 41 0 41 -8 0 -15 -9 -15 -20 0 -11 -4 -20 -10 -20 -5
0 -10 9 -10 20 0 11 -7 20 -15 20 -12 0 -12 -5 0 -41z"/>
<path d="M1205 109 c8 -23 15 -52 15 -65 0 -13 5 -24 10 -24 6 0 10 11 10 24
0 13 7 42 15 65 12 36 12 41 0 41 -8 0 -15 -9 -15 -20 0 -11 -4 -20 -10 -20
-5 0 -10 9 -10 20 0 11 -7 20 -15 20 -12 0 -12 -5 0 -41z"/>
<path d="M1280 95 c0 -43 4 -56 19 -65 37 -19 51 -3 51 61 0 33 -4 59 -10 59
-5 0 -10 -22 -10 -49 0 -28 -4 -53 -10 -56 -6 -4 -10 15 -10 49 0 43 -3 56
-15 56 -12 0 -15 -13 -15 -55z"/>
<path d="M1370 95 c0 -43 4 -56 19 -65 37 -19 51 -3 51 61 0 33 -4 59 -10 59
-5 0 -10 -22 -10 -49 0 -28 -4 -53 -10 -56 -6 -4 -10 15 -10 49 0 43 -3 56
-15 56 -12 0 -15 -13 -15 -55z"/>
<path d="M1555 109 c8 -23 15 -52 15 -65 0 -13 5 -24 10 -24 6 0 10 11 10 24
0 13 7 42 15 65 12 36 12 41 0 41 -8 0 -15 -9 -15 -20 0 -11 -4 -20 -10 -20
-5 0 -10 9 -10 20 0 11 -7 20 -15 20 -12 0 -12 -5 0 -41z"/>
<path d="M1905 109 c8 -23 15 -52 15 -65 0 -13 5 -24 10 -24 6 0 10 11 10 24
0 13 7 42 15 65 12 36 12 41 0 41 -8 0 -15 -9 -15 -20 0 -11 -4 -20 -10 -20
-5 0 -10 9 -10 20 0 11 -7 20 -15 20 -12 0 -12 -5 0 -41z"/>
<path d="M1980 95 c0 -43 4 -56 19 -65 37 -19 51 -3 51 61 0 33 -4 59 -10 59
-5 0 -10 -22 -10 -49 0 -28 -4 -53 -10 -56 -6 -4 -10 15 -10 49 0 43 -3 56
-15 56 -12 0 -15 -13 -15 -55z"/>
<path d="M2070 95 c0 -43 4 -56 19 -65 37 -19 51 -3 51 61 0 33 -4 59 -10 59
-5 0 -10 -22 -10 -49 0 -28 -4 -53 -10 -56 -6 -4 -10 15 -10 49 0 43 -3 56
-15 56 -12 0 -15 -13 -15 -55z"/>
<path d="M2255 109 c8 -23 15 -52 15 -65 0 -13 5 -24 10 -24 6 0 10 11 10 24
0 13 7 42 15 65 12 36 12 41 0 41 -8 0 -15 -9 -15 -20 0 -11 -4 -20 -10 -20
-5 0 -10 9 -10 20 0 11 -7 20 -15 20 -12 0 -12 -5 0 -41z"/>
<path d="M2605 109 c8 -23 15 -52 15 -65 0 -13 5 -24 10 -24 6 0 10 11 10 24
0 13 7 42 15 65 12 36 12 41 0 41 -8 0 -15 -9 -15 -20 0 -11 -4 -20 -10 -20
-5 0 -10 9 -10 20 0 11 -7 20 -15 20 -12 0 -12 -5 0 -41z"/>
<path d="M2680 95 c0 -43 4 -56 19 -65 37 -19 51 -3 51 61 0 33 -4 59 -10 59
-5 0 -10 -22 -10 -49 0 -28 -4 -53 -10 -56 -6 -4 -10 15 -10 49 0 43 -3 56
-15 56 -12 0 -15 -13 -15 -55z"/>
<path d="M2770 95 c0 -43 4 -56 19 -65 37 -19 51 -3 51 61 0 33 -4 59 -10 59
-5 0 -10 -22 -10 -49 0 -28 -4 -53 -10 -56 -6 -4 -10 15 -10 49 0 43 -3 56
-15 56 -12 0 -15 -13 -15 -55z"/>
<path d="M2955 109 c8 -23 15 -52 15 -65 0 -13 5 -24 10 -24 6 0 10 11 10 24
0 13 7 42 15 65 12 36 12 41 0 41 -8 0 -15 -9 -15 -20 0 -11 -4 -20 -10 -20
-5 0 -10 9 -10 20 0 11 -7 20 -15 20 -12 0 -12 -5 0 -41z"/>
<path d="M3305 109 c8 -23 15 -52 15 -65 0 -13 5 -24 10 -24 6 0 10 11 10 24
0 13 7 42 15 65 12 36 12 41 0 41 -8 0 -15 -9 -15 -20 0 -11 -4 -20 -10 -20
-5 0 -10 9 -10 20 0 11 -7 20 -15 20 -12 0 -12 -5 0 -41z"/>
<path d="M3380 95 c0 -43 4 -56 19 -65 37 -19 51 -3 51 61 0 33 -4 59 -10 59
-5 0 -10 -22 -10 -49 0 -28 -4 -53 -10 -56 -6 -4 -10 15 -10 49 0 43 -3 56
-15 56 -12 0 -15 -13 -15 -55z"/>
<path d="M3470 95 c0 -43 4 -56 19 -65 37 -19 51 -3 51 61 0 33 -4 59 -10 59
-5 0 -10 -22 -10 -49 0 -28 -4 -53 -10 -56 -6 -4 -10 15 -10 49 0 43 -3 56
-15 56 -12 0 -15 -13 -15 -55z"/>
<path d="M3655 109 c8 -23 15 -52 15 -65 0 -13 5 -24 10 -24 6 0 10 11 10 24
0 13 7 42 15 65 12 36 12 41 0 41 -8 0 -15 -9 -15 -20 0 -11 -4 -20 -10 -20
-5 0 -10 9 -10 20 0 11 -7 20 -15 20 -12 0 -12 -5 0 -41z"/>
<path d="M4005 109 c8 -23 15 -52 15 -65 0 -13 5 -24 10 -24 6 0 10 11 10 24
0 13 7 42 15 65 12 36 12 41 0 41 -8 0 -15 -9 -15 -20 0 -11 -4 -20 -10 -20
-5 0 -10 9 -10 20 0 11 -7 20 -15 20 -12 0 -12 -5 0 -41z"/>
<path d="M4080 95 c0 -43 4 -56 19 -65 37 -19 51 -3 51 61 0 33 -4 59 -10 59
-5 0 -10 -22 -10 -49 0 -28 -4 -53 -10 -56 -6 -4 -10 15 -10 49 0 43 -3 56
-15 56 -12 0 -15 -13 -15 -55z"/>
<path d="M4170 95 c0 -43 4 -56 19 -65 37 -19 51 -3 51 61 0 33 -4 59 -10 59
-5 0 -10 -22 -10 -49 0 -28 -4 -53 -10 -56 -6 -4 -10 15 -10 49 0 43 -3 56
-15 56 -12 0 -15 -13 -15 -55z"/>
<path d="M4355 109 c8 -23 15 -52 15 -65 0 -13 5 -24 10 -24 6 0 10 11 10 24
0 13 7 42 15 65 12 36 12 41 0 41 -8 0 -15 -9 -15 -20 0 -11 -4 -20 -10 -20
-5 0 -10 9 -10 20 0 11 -7 20 -15 20 -12 0 -12 -5 0 -41z"/>
<path d="M4705 109 c8 -23 15 -52 15 -65 0 -13 5 -24 10 -24 6 0 10 11 10 24
0 13 7 42 15 65 12 36 12 41 0 41 -8 0 -15 -9 -15 -20 0 -11 -4 -20 -10 -20
-5 0 -10 9 -10 20 0 11 -7 20 -15 20 -12 0 -12 -5 0 -41z"/>
<path d="M4780 95 c0 -43 4 -56 19 -65 37 -19 51 -3 51 61 0 33 -4 59 -10 59
-5 0 -10 -22 -10 -49 0 -28 -4 -53 -10 -56 -6 -4 -10 15 -10 49 0 43 -3 56
-15 56 -12 0 -15 -13 -15 -55z"/>
<path d="M4870 95 c0 -43 4 -56 19 -65 37 -19 51 -3 51 61 0 33 -4 59 -10 59
-5 0 -10 -22 -10 -49 0 -28 -4 -53 -10 -56 -6 -4 -10 15 -10 49 0 43 -3 56
-15 56 -12 0 -15 -13 -15 -55z"/>
<path d="M5055 109 c8 -23 15 -52 15 -65 0 -13 5 -24 10 -24 6 0 10 11 10 24
0 13 7 42 15 65 12 36 12 41 0 41 -8 0 -15 -9 -15 -20 0 -11 -4 -20 -10 -20
-5 0 -10 9 -10 20 0 11 -7 20 -15 20 -12 0 -12 -5 0 -41z"/>
<path d="M5405 109 c8 -23 15 -52 15 -65 0 -13 5 -24 10 -24 6 0 10 11 10 24
0 13 7 42 15 65 12 36 12 41 0 41 -8 0 -15 -9 -15 -20 0 -11 -4 -20 -10 -20
-5 0 -10 9 -10 20 0 11 -7 20 -15 20 -12 0 -12 -5 0 -41z"/>
<path d="M5480 95 c0 -43 4 -56 19 -65 37 -19 51 -3 51 61 0 33 -4 59 -10 59
-5 0 -10 -22 -10 -49 0 -28 -4 -53 -10 -56 -6 -4 -10 15 -10 49 0 43 -3 56
-15 56 -12 0 -15 -13 -15 -55z"/>
<path d="M5570 95 c0 -43 4 -56 19 -65 37 -19 51 -3 51 61 0 33 -4 59 -10 59
-5 0 -10 -22 -10 -49 0 -28 -4 -53 -10 -56 -6 -4 -10 15 -10 49 0 43 -3 56
-15 56 -12 0 -15 -13 -15 -55z"/>
<path d="M5755 109 c8 -23 15 -52 15 -65 0 -13 5 -24 10 -24 6 0 10 11 10 24
0 13 7 42 15 65 12 36 12 41 0 41 -8 0 -15 -9 -15 -20 0 -11 -4 -20 -10 -20
-5 0 -10 9 -10 20 0 11 -7 20 -15 20 -12 0 -12 -5 0 -41z"/>
<path d="M6105 109 c8 -23 15 -52 15 -65 0 -13 5 -24 10 -24 6 0 10 11 10 24
0 13 7 42 15 65 12 36 12 41 0 41 -8 0 -15 -9 -15 -20 0 -11 -4 -20 -10 -20
-5 0 -10 9 -10 20 0 11 -7 20 -15 20 -12 0 -12 -5 0 -41z"/>
<path d="M6180 95 c0 -43 4 -56 19 -65 37 -19 51 -3 51 61 0 33 -4 59 -10 59
-5 0 -10 -22 -10 -49 0 -28 -4 -53 -10 -56 -6 -4 -10 15 -10 49 0 43 -3 56
-15 56 -12 0 -15 -13 -15 -55z"/>
<path d="M6270 95 c0 -43 4 -56 19 -65 37 -19 51 -3 51 61 0 33 -4 59 -10 59
-5 0 -10 -22 -10 -49 0 -28 -4 -53 -10 -56 -6 -4 -10 15 -10 49 0 43 -3 56
-15 56 -12 0 -15 -13 -15 -55z"/>
<path d="M6455 109 c8 -23 15 -52 15 -65 0 -13 5 -24 10 -24 6 0 10 11 10 24
0 13 7 42 15 65 12 36 12 41 0 41 -8 0 -15 -9 -15 -20 0 -11 -4 -20 -10 -20
-5 0 -10 9 -10 20 0 11 -7 20 -15 20 -12 0 -12 -5 0 -41z"/>
<path d="M6805 109 c8 -23 15 -52 15 -65 0 -13 5 -24 10 -24 6 0 10 11 10 24
0 13 7 42 15 65 12 36 12 41 0 41 -8 0 -15 -9 -15 -20 0 -11 -4 -20 -10 -20
-5 0 -10 9 -10 20 0 11 -7 20 -15 20 -12 0 -12 -5 0 -41z"/>
<path d="M6880 95 c0 -43 4 -56 19 -65 37 -19 51 -3 51 61 0 33 -4 59 -10 59
-5 0 -10 -22 -10 -49 0 -28 -4 -53 -10 -56 -6 -4 -10 15 -10 49 0 43 -3 56
-15 56 -12 0 -15 -13 -15 -55z"/>
<path d="M6970 95 c0 -43 4 -56 19 -65 37 -19 51 -3 51 61 0 33 -4 59 -10 59
-5 0 -10 -22 -10 -49 0 -28 -4 -53 -10 -56 -6 -4 -10 15 -10 49 0 43 -3 56
-15 56 -12 0 -15 -13 -15 -55z"/>
<path d="M7155 109 c8 -23 15 -52 15 -65 0 -13 5 -24 10 -24 6 0 10 11 10 24
0 13 7 42 15 65 12 36 12 41 0 41 -8 0 -15 -9 -15 -20 0 -11 -4 -20 -10 -20
-5 0 -10 9 -10 20 0 11 -7 20 -15 20 -12 0 -12 -5 0 -41z"/>
<path d="M7505 109 c8 -23 15 -52 15 -65 0 -13 5 -24 10 -24 6 0 10 11 10 24
0 13 7 42 15 65 12 36 12 41 0 41 -8 0 -15 -9 -15 -20 0 -11 -4 -20 -10 -20
-5 0 -10 9 -10 20 0 11 -7 20 -15 20 -12 0 -12 -5 0 -41z"/>
<path d="M7580 95 c0 -43 4 -56 19 -65 37 -19 51 -3 51 61 0 33 -4 59 -10 59
-5 0 -10 -22 -10 -49 0 -28 -4 -53 -10 -56 -6 -4 -10 15 -10 49 0 43 -3 56
-15 56 -12 0 -15 -13 -15 -55z"/>
<path d="M7670 95 c0 -43 4 -56 19 -65 37 -19 51 -3 51 61 0 33 -4 59 -10 59
-5 0 -10 -22 -10 -49 0 -28 -4 -53 -10 -56 -6 -4 -10 15 -10 49 0 43 -3 56
-15 56 -12 0 -15 -13 -15 -55z"/>
<path d="M7855 109 c8 -23 15 -52 15 -65 0 -13 5 -24 10 -24 6 0 10 11 10 24
0 13 7 42 15 65 12 36 12 41 0 41 -8 0 -15 -9 -15 -20 0 -11 -4 -20 -10 -20
-5 0 -10 9 -10 20 0 11 -7 20 -15 20 -12 0 -12 -5 0 -41z"/>
<path d="M8205 109 c8 -23 15 -52 15 -65 0 -13 5 -24 10 -24 6 0 10 11 10 24
0 13 7 42 15 65 12 36 12 41 0 41 -8 0 -15 -9 -15 -20 0 -11 -4 -20 -10 -20
-5 0 -10 9 -10 20 0 11 -7 20 -15 20 -12 0 -12 -5 0 -41z"/>
<path d="M8280 95 c0 -43 4 -56 19 -65 37 -19 51 -3 51 61 0 33 -4 59 -10 59
-5 0 -10 -22 -10 -49 0 -28 -4 -53 -10 -56 -6 -4 -10 15 -10 49 0 43 -3 56
-15 56 -12 0 -15 -13 -15 -55z"/>
<path d="M8370 95 c0 -43 4 -56 19 -65 37 -19 51 -3 51 61 0 33 -4 59 -10 59
-5 0 -10 -22 -10 -49 0 -28 -4 -53 -10 -56 -6 -4 -10 15 -10 49 0 43 -3 56
-15 56 -12 0 -15 -13 -15 -55z"/>
<path d="M8555 109 c8 -23 15 -52 15 -65 0 -13 5 -24 10 -24 6 0 10 11 10 24
0 13 7 42 15 65 12 36 12 41 0 41 -8 0 -15 -9 -15 -20 0 -11 -4 -20 -10 -20
-5 0 -10 9 -10 20 0 11 -7 20 -15 20 -12 0 -12 -5 0 -41z"/>
<path d="M8905 109 c8 -23 15 -52 15 -65 0 -13 5 -24 10 -24 6 0 10 11 10 24
0 13 7 42 15 65 12 36 12 41 0 41 -8 0 -15 -9 -15 -20 0 -11 -4 -20 -10 -20
-5 0 -10 9 -10 20 0 11 -7 20 -15 20 -12 0 -12 -5 0 -41z"/>
<path d="M8980 95 c0 -43 4 -56 19 -65 37 -19 51 -3 51 61 0 33 -4 59 -10 59
-5 0 -10 -22 -10 -49 0 -28 -4 -53 -10 -56 -6 -4 -10 15 -10 49 0 43 -3 56
-15 56 -12 0 -15 -13 -15 -55z"/>
<path d="M9070 95 c0 -43 4 -56 19 -65 37 -19 51 -3 51 61 0 33 -4 59 -10 59
-5 0 -10 -22 -10 -49 0 -28 -4 -53 -10 -56 -6 -4 -10 15 -10 49 0 43 -3 56
-15 56 -12 0 -15 -13 -15 -55z"/>
<path d="M9255 109 c8 -23 15 -52 15 -65 0 -13 5 -24 10 -24 6 0 10 11 10 24
0 13 7 42 15 65 12 36 12 41 0 41 -8 0 -15 -9 -15 -20 0 -11 -4 -20 -10 -20
-5 0 -10 9 -10 20 0 11 -7 20 -15 20 -12 0 -12 -5 0 -41z"/>
<path d="M9605 109 c8 -23 15 -52 15 -65 0 -13 5 -24 10 -24 6 0 10 11 10 24
0 13 7 42 15 65 12 36 12 41 0 41 -8 0 -15 -9 -15 -20 0 -11 -4 -20 -10 -20
-5 0 -10 9 -10 20 0 11 -7 20 -15 20 -12 0 -12 -5 0 -41z"/>
<path d="M9680 95 c0 -43 4 -56 19 -65 37 -19 51 -3 51 61 0 33 -4 59 -10 59
-5 0 -10 -22 -10 -49 0 -28 -4 -53 -10 -56 -6 -4 -10 15 -10 49 0 43 -3 56
-15 56 -12 0 -15 -13 -15 -55z"/>
<path d="M9770 95 c0 -43 4 -56 19 -65 37 -19 51 -3 51 61 0 33 -4 59 -10 59
-5 0 -10 -22 -10 -49 0 -28 -4 -53 -10 -56 -6 -4 -10 15 -10 49 0 43 -3 56
-15 56 -12 0 -15 -13 -15 -55z"/>
<path d="M9955 109 c8 -23 15 -52 15 -65 0 -13 5 -24 10 -24 6 0 10 11 10 24
0 13 7 42 15 65 12 36 12 41 0 41 -8 0 -15 -9 -15 -20 0 -11 -4 -20 -10 -20
-5 0 -10 9 -10 20 0 11 -7 20 -15 20 -12 0 -12 -5 0 -41z"/>
<path d="M10305 109 c8 -23 15 -52 15 -65 0 -13 5 -24 10 -24 6 0 10 11 10 24
0 13 7 42 15 65 12 36 12 41 0 41 -8 0 -15 -9 -15 -20 0 -11 -4 -20 -10 -20
-5 0 -10 9 -10 20 0 11 -7 20 -15 20 -12 0 -12 -5 0 -41z"/>
<path d="M10380 95 c0 -43 4 -56 19 -65 37 -19 51 -3 51 61 0 33 -4 59 -10 59
-5 0 -10 -22 -10 -49 0 -28 -4 -53 -10 -56 -6 -4 -10 15 -10 49 0 43 -3 56
-15 56 -12 0 -15 -13 -15 -55z"/>
<path d="M10470 95 c0 -43 4 -56 19 -65 37 -19 51 -3 51 61 0 33 -4 59 -10 59
-5 0 -10 -22 -10 -49 0 -28 -4 -53 -10 -56 -6 -4 -10 15 -10 49 0 43 -3 56
-15 56 -12 0 -15 -13 -15 -55z"/>
<path d="M10655 109 c8 -23 15 -52 15 -65 0 -13 5 -24 10 -24 6 0 10 11 10 24
0 13 7 42 15 65 12 36 12 41 0 41 -8 0 -15 -9 -15 -20 0 -11 -4 -20 -10 -20
-5 0 -10 9 -10 20 0 11 -7 20 -15 20 -12 0 -12 -5 0 -41z"/>
<path d="M11005 109 c8 -23 15 -52 15 -65 0 -13 5 -24 10 -24 6 0 10 11 10 24
0 13 7 42 15 65 12 36 12 41 0 41 -8 0 -15 -9 -15 -20 0 -11 -4 -20 -10 -20
-5 0 -10 9 -10 20 0 11 -7 20 -15 20 -12 0 -12 -5 0 -41z"/>
<path d="M11080 95 c0 -43 4 -56 19 -65 37 -19 51 -3 51 61 0 33 -4 59 -10 59
-5 0 -10 -22 -10 -49 0 -28 -4 -53 -10 -56 -6 -4 -10 15 -10 49 0 43 -3 56
-15 56 -12 0 -15 -13 -15 -55z"/>
<path d="M11170 95 c0 -43 4 -56 19 -65 37 -19 51 -3 51 61 0 33 -4 59 -10 59
-5 0 -10 -22 -10 -49 0 -28 -4 -53 -10 -56 -6 -4 -10 15 -10 49 0 43 -3 56
-15 56 -12 0 -15 -13 -15 -55z"/>
<path d="M11355 109 c8 -23 15 -52 15 -65 0 -13 5 -24 10 -24 6 0 10 11 10 24
0 13 7 42 15 65 12 36 12 41 0 41 -8 0 -15 -9 -15 -20 0 -11 -4 -20 -10 -20
-5 0 -10 9 -10 20 0 11 -7 20 -15 20 -12 0 -12 -5 0 -41z"/>
<path d="M11705 109 c8 -23 15 -52 15 -65 0 -13 5 -24 10 -24 6 0 10 11 10 24
0 13 7 42 15 65 12 36 12 41 0 41 -8 0 -15 -9 -15 -20 0 -11 -4 -20 -10 -20
-5 0 -10 9 -10 20 0 11 -7 20 -15 20 -12 0 -12 -5 0 -41z"/>
<path d="M11780 95 c0 -43 4 -56 19 -65 37 -19 51 -3 51 61 0 33 -4 59 -10 59
-5 0 -10 -22 -10 -49 0 -28 -4 -53 -10 -56 -6 -4 -10 15 -10 49 0 43 -3 56
-15 56 -12 0 -15 -13 -15 -55z"/>
<path d="M11870 95 c0 -43 4 -56 19 -65 37 -19 51 -3 51 61 0 33 -4 59 -10 59
-5 0 -10 -22 -10 -49 0 -28 -4 -53 -10 -56 -6 -4 -10 15 -10 49 0 43 -3 56
-15 56 -12 0 -15 -13 -15 -55z"/>
<path d="M12055 109 c8 -23 15 -52 15 -65 0 -13 5 -24 10 -24 6 0 10 11 10 24
0 13 7 42 15 65 12 36 12 41 0 41 -8 0 -15 -9 -15 -20 0 -11 -4 -20 -10 -20
-5 0 -10 9 -10 20 0 11 -7 20 -15 20 -12 0 -12 -5 0 -41z"/>
<path d="M12405 109 c8 -23 15 -52 15 -65 0 -13 5 -24 10 -24 6 0 10 11 10 24
0 13 7 42 15 65 12 36 12 41 0 41 -8 0 -15 -9 -15 -20 0 -11 -4 -20 -10 -20
-5 0 -10 9 -10 20 0 11 -7 20 -15 20 -12 0 -12 -5 0 -41z"/>
<path d="M12480 95 c0 -43 4 -56 19 -65 37 -19 51 -3 51 61 0 33 -4 59 -10 59
-5 0 -10 -22 -10 -49 0 -28 -4 -53 -10 -56 -6 -4 -10 15 -10 49 0 43 -3 56
-15 56 -12 0 -15 -13 -15 -55z"/>
<path d="M12570 95 c0 -43 4 -56 19 -65 37 -19 51 -3 51 61 0 33 -4 59 -10 59
-5 0 -10 -22 -10 -49 0 -28 -4 -53 -10 -56 -6 -4 -10 15 -10 49 0 43 -3 56
-15 56 -12 0 -15 -13 -15 -55z"/>
<path d="M12755 109 c8 -23 15 -52 15 -65 0 -13 5 -24 10 -24 6 0 10 11 10 24
0 13 7 42 15 65 12 36 12 41 0 41 -8 0 -15 -9 -15 -20 0 -11 -4 -20 -10 -20
-5 0 -10 9 -10 20 0 11 -7 20 -15 20 -12 0 -12 -5 0 -41z"/>
<path d="M232 78 c3 -51 4 -53 36 -55 l32 -3 0 55 c0 41 -4 55 -14 55 -11 0
-16 -14 -19 -47 l-3 -48 -2 48 c-2 35 -6 47 -18 47 -12 0 -14 -10 -12 -52z"/>
<path d="M322 78 c3 -51 4 -53 36 -55 l32 -3 0 55 c0 41 -4 55 -14 55 -11 0
-16 -14 -19 -47 l-3 -48 -2 48 c-2 35 -6 47 -18 47 -12 0 -14 -10 -12 -52z"/>
<path d="M932 78 c3 -51 4 -53 36 -55 l32 -3 0 55 c0 41 -4 55 -14 55 -11 0
-16 -14 -19 -47 l-3 -48 -2 48 c-2 35 -6 47 -18 47 -12 0 -14 -10 -12 -52z"/>
<path d="M1022 78 c3 -51 4 -53 36 -55 l32 -3 0 55 c0 41 -4 55 -14 55 -11 0
-16 -14 -19 -47 l-3 -48 -2 48 c-2 35 -6 47 -18 47 -12 0 -14 -10 -12 -52z"/>
<path d="M1632 78 c3 -51 4 -53 36 -55 l32 -3 0 55 c0 41 -4 55 -14 55 -11 0
-16 -14 -19 -47 l-3 -48 -2 48 c-2 35 -6 47 -18 47 -12 0 -14 -10 -12 -52z"/>
<path d="M1722 78 c3 -51 4 -53 36 -55 l32 -3 0 55 c0 41 -4 55 -14 55 -11 0
-16 -14 -19 -47 l-3 -48 -2 48 c-2 35 -6 47 -18 47 -12 0 -14 -10 -12 -52z"/>
<path d="M2332 78 c3 -51 4 -53 36 -55 l32 -3 0 55 c0 41 -4 55 -14 55 -11 0
-16 -14 -19 -47 l-3 -48 -2 48 c-2 35 -6 47 -18 47 -12 0 -14 -10 -12 -52z"/>
<path d="M2422 78 c3 -51 4 -53 36 -55 l32 -3 0 55 c0 41 -4 55 -14 55 -11 0
-16 -14 -19 -47 l-3 -48 -2 48 c-2 35 -6 47 -18 47 -12 0 -14 -10 -12 -52z"/>
<path d="M3032 78 c3 -51 4 -53 36 -55 l32 -3 0 55 c0 41 -4 55 -14 55 -11 0
-16 -14 -19 -47 l-3 -48 -2 48 c-2 35 -6 47 -18 47 -12 0 -14 -10 -12 -52z"/>
<path d="M3122 78 c3 -51 4 -53 36 -55 l32 -3 0 55 c0 41 -4 55 -14 55 -11 0
-16 -14 -19 -47 l-3 -48 -2 48 c-2 35 -6 47 -18 47 -12 0 -14 -10 -12 -52z"/>
<path d="M3732 78 c3 -51 4 -53 36 -55 l32 -3 0 55 c0 41 -4 55 -14 55 -11 0
-16 -14 -19 -47 l-3 -48 -2 48 c-2 35 -6 47 -18 47 -12 0 -14 -10 -12 -52z"/>
<path d="M3822 78 c3 -51 4 -53 36 -55 l32 -3 0 55 c0 41 -4 55 -14 55 -11 0
-16 -14 -19 -47 l-3 -48 -2 48 c-2 35 -6 47 -18 47 -12 0 -14 -10 -12 -52z"/>
<path d="M4432 78 c3 -51 4 -53 36 -55 l32 -3 0 55 c0 41 -4 55 -14 55 -11 0
-16 -14 -19 -47 l-3 -48 -2 48 c-2 35 -6 47 -18 47 -12 0 -14 -10 -12 -52z"/>
<path d="M4522 78 c3 -51 4 -53 36 -55 l32 -3 0 55 c0 41 -4 55 -14 55 -11 0
-16 -14 -19 -47 l-3 -48 -2 48 c-2 35 -6 47 -18 47 -12 0 -14 -10 -12 -52z"/>
<path d="M5132 78 c3 -51 4 -53 36 -55 l32 -3 0 55 c0 41 -4 55 -14 55 -11 0
-16 -14 -19 -47 l-3 -48 -2 48 c-2 35 -6 47 -18 47 -12 0 -14 -10 -12 -52z"/>
<path d="M5222 78 c3 -51 4 -53 36 -55 l32 -3 0 55 c0 41 -4 55 -14 55 -11 0
-16 -14 -19 -47 l-3 -48 -2 48 c-2 35 -6 47 -18 47 -12 0 -14 -10 -12 -52z"/>
<path d="M5832 78 c3 -51 4 -53 36 -55 l32 -3 0 55 c0 41 -4 55 -14 55 -11 0
-16 -14 -19 -47 l-3 -48 -2 48 c-2 35 -6 47 -18 47 -12 0 -14 -10 -12 -52z"/>
<path d="M5922 78 c3 -51 4 -53 36 -55 l32 -3 0 55 c0 41 -4 55 -14 55 -11 0
-16 -14 -19 -47 l-3 -48 -2 48 c-2 35 -6 47 -18 47 -12 0 -14 -10 -12 -52z"/>
<path d="M6532 78 c3 -51 4 -53 36 -55 l32 -3 0 55 c0 41 -4 55 -14 55 -11 0
-16 -14 -19 -47 l-3 -48 -2 48 c-2 35 -6 47 -18 47 -12 0 -14 -10 -12 -52z"/>
<path d="M6622 78 c3 -51 4 -53 36 -55 l32 -3 0 55 c0 41 -4 55 -14 55 -11 0
-16 -14 -19 -47 l-3 -48 -2 48 c-2 35 -6 47 -18 47 -12 0 -14 -10 -12 -52z"/>
<path d="M7232 78 c3 -51 4 -53 36 -55 l32 -3 0 55 c0 41 -4 55 -14 55 -11 0
-16 -14 -19 -47 l-3 -48 -2 48 c-2 35 -6 47 -18 47 -12 0 -14 -10 -12 -52z"/>
<path d="M7322 78 c3 -51 4 -53 36 -55 l32 -3 0 55 c0 41 -4 55 -14 55 -11 0
-16 -14 -19 -47 l-3 -48 -2 48 c-2 35 -6 47 -18 47 -12 0 -14 -10 -12 -52z"/>
<path d="M7932 78 c3 -51 4 -53 36 -55 l32 -3 0 55 c0 41 -4 55 -14 55 -11 0
-16 -14 -19 -47 l-3 -48 -2 48 c-2 35 -6 47 -18 47 -12 0 -14 -10 -12 -52z"/>
<path d="M8022 78 c3 -51 4 -53 36 -55 l32 -3 0 55 c0 41 -4 55 -14 55 -11 0
-16 -14 -19 -47 l-3 -48 -2 48 c-2 35 -6 47 -18 47 -12 0 -14 -10 -12 -52z"/>
<path d="M8632 78 c3 -51 4 -53 36 -55 l32 -3 0 55 c0 41 -4 55 -14 55 -11 0
-16 -14 -19 -47 l-3 -48 -2 48 c-2 35 -6 47 -18 47 -12 0 -14 -10 -12 -52z"/>
<path d="M8722 78 c3 -51 4 -53 36 -55 l32 -3 0 55 c0 41 -4 55 -14 55 -11 0
-16 -14 -19 -47 l-3 -48 -2 48 c-2 35 -6 47 -18 47 -12 0 -14 -10 -12 -52z"/>
<path d="M9332 78 c3 -51 4 -53 36 -55 l32 -3 0 55 c0 41 -4 55 -14 55 -11 0
-16 -14 -19 -47 l-3 -48 -2 48 c-2 35 -6 47 -18 47 -12 0 -14 -10 -12 -52z"/>
<path d="M9422 78 c3 -51 4 -53 36 -55 l32 -3 0 55 c0 41 -4 55 -14 55 -11 0
-16 -14 -19 -47 l-3 -48 -2 48 c-2 35 -6 47 -18 47 -12 0 -14 -10 -12 -52z"/>
<path d="M10032 78 c3 -51 4 -53 36 -55 l32 -3 0 55 c0 41 -4 55 -14 55 -11 0
-16 -14 -19 -47 l-3 -48 -2 48 c-2 35 -6 47 -18 47 -12 0 -14 -10 -12 -52z"/>
<path d="M10122 78 c3 -51 4 -53 36 -55 l32 -3 0 55 c0 41 -4 55 -14 55 -11 0
-16 -14 -19 -47 l-3 -48 -2 48 c-2 35 -6 47 -18 47 -12 0 -14 -10 -12 -52z"/>
<path d="M10732 78 c3 -51 4 -53 36 -55 l32 -3 0 55 c0 41 -4 55 -14 55 -11 0
-16 -14 -19 -47 l-3 -48 -2 48 c-2 35 -6 47 -18 47 -12 0 -14 -10 -12 -52z"/>
<path d="M10822 78 c3 -51 4 -53 36 -55 l32 -3 0 55 c0 41 -4 55 -14 55 -11 0
-16 -14 -19 -47 l-3 -48 -2 48 c-2 35 -6 47 -18 47 -12 0 -14 -10 -12 -52z"/>
<path d="M11432 78 c3 -51 4 -53 36 -55 l32 -3 0 55 c0 41 -4 55 -14 55 -11 0
-16 -14 -19 -47 l-3 -48 -2 48 c-2 35 -6 47 -18 47 -12 0 -14 -10 -12 -52z"/>
<path d="M11522 78 c3 -51 4 -53 36 -55 l32 -3 0 55 c0 41 -4 55 -14 55 -11 0
-16 -14 -19 -47 l-3 -48 -2 48 c-2 35 -6 47 -18 47 -12 0 -14 -10 -12 -52z"/>
<path d="M12132 78 c3 -51 4 -53 36 -55 l32 -3 0 55 c0 41 -4 55 -14 55 -11 0
-16 -14 -19 -47 l-3 -48 -2 48 c-2 35 -6 47 -18 47 -12 0 -14 -10 -12 -52z"/>
<path d="M12222 78 c3 -51 4 -53 36 -55 l32 -3 0 55 c0 41 -4 55 -14 55 -11 0
-16 -14 -19 -47 l-3 -48 -2 48 c-2 35 -6 47 -18 47 -12 0 -14 -10 -12 -52z"/>
<path d="M12832 78 c3 -51 4 -53 36 -55 l32 -3 0 55 c0 41 -4 55 -14 55 -11 0
-16 -14 -19 -47 l-3 -48 -2 48 c-2 35 -6 47 -18 47 -12 0 -14 -10 -12 -52z"/>
<path d="M12922 78 c3 -51 4 -53 36 -55 l32 -3 0 55 c0 41 -4 55 -14 55 -11 0
-16 -14 -19 -47 l-3 -48 -2 48 c-2 35 -6 47 -18 47 -12 0 -14 -10 -12 -52z"/>
</g>
</svg>
