<svg width="52" height="66" viewBox="0 0 52 66" xmlns="http://www.w3.org/2000/svg"><defs><linearGradient x1="50%" y1="0%" x2="50%" y2="100%" id="a"><stop stop-color="#DE8C2F" stop-opacity=".3" offset="0%"/><stop stop-color="#DE8C2F" stop-opacity=".6" offset="100%"/></linearGradient></defs><g fill="none" fill-rule="evenodd"><circle fill="url(#a)" cx="28.304" cy="30.829" r="23.451"/><path d="M46.386 1.096c.058-.205.11-.38.153-.526.044-.146.095-.336.154-.57a3.002 3.002 0 01-.22.614c-.087.175-.116.336-.087.482zm-1.578.965c.058-.234.131-.468.219-.702.088-.234.117-.424.088-.57a9.104 9.104 0 01-.242.79c-.102.292-.124.452-.065.482zm0 1.052a9.35 9.35 0 00.438-1.403 5.86 5.86 0 00.088-.373c0-.014-.015.022-.044.11a12.714 12.714 0 00-.22.745 3.697 3.697 0 01-.24.482c-.103.176-.14.307-.11.395.088-.205.132-.278.132-.22a1.2 1.2 0 01-.044.264zm-3.464 3.025c.059.03.124-.073.197-.307.073-.234.11-.38.11-.438-.058.058-.102.175-.132.35-.029.176-.087.307-.175.395zm1.885.132c.03-.03.08-.154.154-.373.073-.22.08-.3.022-.241-.03.146-.073.27-.132.372-.058.103-.073.183-.044.242zm-.526.657c.059-.087.124-.24.198-.46.073-.22.11-.387.11-.504a4.532 4.532 0 00-.198.482c-.073.205-.11.365-.11.482zm-1.271 2.324c0-.117.029-.175.087-.175.059 0 .059-.03 0-.088 0 .03-.014.044-.043.044a.412.412 0 00.11-.241c.014-.103.05-.227.109-.373.088-.234.131-.395.131-.482 0-.088-.043.029-.131.35-.059.146-.124.315-.197.505-.074.19-.095.343-.066.46zm1.622 1.447c0-.146.051-.322.153-.526.103-.205.125-.38.066-.527-.058.147-.124.351-.197.614-.073.263-.08.41-.022.439zm-3.079.006l.01-.006c0-.059.03-.154.088-.285.058-.132.073-.212.043-.241-.029.058-.036.065-.021.022.014-.044.007-.08-.022-.11a6.65 6.65 0 00-.088.416c-.03.161-.03.227 0 .198l-.01.006zm2.553.476c.058-.146.117-.322.175-.526.059-.205.088-.38.088-.526-.059.204-.124.416-.197.635-.073.22-.095.359-.066.417zm2.06-.35c.03-.147.059-.271.088-.373.03-.103.044-.198.044-.285-.058.146-.11.277-.153.394-.044.117-.037.205.021.263zm-1.446.35c0-.117.029-.285.087-.504.059-.22.073-.314.044-.285a.39.39 0 00-.044.175c0 .059-.029.088-.087.088l.015-.002-.007.051a1.833 1.833 0 00-.017.418l.009.059zm-.877.745c0 .03.014.015.044-.044.029-.058.058-.146.087-.263.03-.116.044-.219.044-.306a.385.385 0 00-.044.11.385.385 0 01-.044.109 3.63 3.63 0 00-.087.394zm-17.757.702c.088-.263.198-.504.33-.724.13-.219.196-.387.196-.504a4.596 4.596 0 01-.328.57c-.103.146-.227.322-.373.526.03.059.051.11.066.154.014.044.05.036.11-.022zm19.554.131c.059-.146.132-.321.22-.526.087-.204.131-.365.131-.482-.058.146-.131.321-.22.526-.087.205-.13.365-.13.482zm-18.677-.131c0-.059.051-.154.154-.285.102-.132.182-.241.24-.329a.439.439 0 01-.153.35 1.314 1.314 0 00-.24.264zm15.608 1.38c-.058.103-.058.081 0-.065.117-.321.19-.57.22-.745.029-.176.102-.41.219-.702.058-.117.087-.131.087-.044-.029.147-.095.337-.197.57a4.43 4.43 0 00-.241.702.58.58 0 01-.088.285zm1.053.593c.146-.468.292-.899.438-1.294l-.06.161v.005l-.028.141a3.196 3.196 0 01-.35.987zm-10.917.219a.27.27 0 01.043-.153l.132-.198c.117-.175.19-.321.22-.438-.06-.059-.11-.044-.154.044l-.154.307a.682.682 0 00-.11.285c-.014.102-.007.153.023.153zm-7.498.745c.03-.117.088-.255.176-.416.088-.161.117-.27.088-.329-.059.117-.125.256-.198.416-.073.161-.095.27-.066.33zm-.438.526c-.03.117-.03.161 0 .132l.22-.548a7.84 7.84 0 01.262-.592c-.058.03-.117.11-.175.241l-.175.395a2.293 2.293 0 00-.132.372zm18.239-.175c-.03.059-.037.066-.022.022.014-.044-.007-.066-.066-.066.059-.117.102-.24.132-.372a.576.576 0 01.131-.285c.059 0 .037.102-.066.306-.102.205-.138.337-.11.395zm-18.809 1.973c.088-.234.183-.475.285-.723.102-.249.168-.46.197-.636a3.673 3.673 0 01-.285.745c-.131.263-.197.468-.197.614zm-1.052 2.28a2.84 2.84 0 00.153-.373.731.731 0 01.154-.285 2.43 2.43 0 01-.22.57c.059.059.117-.014.176-.22.058-.204.117-.306.175-.306-.058.058-.117.175-.175.35-.059.176-.059.205 0 .088.058-.116.131-.285.22-.504.087-.219.174-.43.262-.635a23.905 23.905 0 00.307-.746.556.556 0 00-.131.263c-.03.117-.059.176-.088.176 0-.088.014-.19.044-.307.029-.117.058-.22.087-.307-.117.058-.168.16-.153.307.015.146-.037.248-.154.307-.058.029-.043-.015.044-.132.088-.117.103-.175.044-.175-.321.701-.57 1.344-.745 1.929zm.35.131c.176-.467.337-.847.483-1.14.146-.292.278-.643.394-1.052-.146.41-.314.804-.504 1.184-.19.38-.314.716-.372 1.008zm-.679.768c-.015.073.007.095.066.065 0-.029.014-.095.044-.197a4.327 4.327 0 01.219-.592c.03-.058.014-.073-.044-.044l-.066.154a7.697 7.697 0 00-.131.329 1.941 1.941 0 00-.088.285zm20.234.24c.058-.175.124-.365.197-.57.073-.204.08-.335.022-.394 0 .146-.059.329-.176.548-.116.22-.131.358-.043.417zm-21.133 1.58c.088-.235.176-.461.263-.68.088-.22.19-.402.307-.548-.058 0-.117.065-.175.197-.059.131-.124.27-.197.416a1.822 1.822 0 00-.154.417l-.044.197zm20.563.525c.058-.292.146-.606.263-.942.117-.337.102-.534-.044-.592 0 .087-.015.219-.044.394l-.088.526a5.76 5.76 0 01-.087.439c-.03.117-.03.175 0 .175zm-.395 1.49a19.5 19.5 0 00.241-.679c.073-.219.139-.402.197-.548.03 0 .037.022.022.066-.014.044-.007.08.022.11a5.78 5.78 0 00.198-.636c.073-.278.138-.519.197-.723.058-.205.088-.33.088-.373 0-.044-.044.11-.132.46-.03 0-.044-.029-.044-.087a.763.763 0 00-.066.416.5.5 0 01-.153.417v-.044c0-.03.007-.044.022-.044s.022-.015.022-.044v-.088c-.088.234-.176.475-.263.724-.088.248-.161.343-.22.285.03.087.015.204-.043.35a1.01 1.01 0 00-.088.351c.03-.058.037-.066.022-.022a.36.36 0 00-.022.11zm-.658.395c0-.233.044-.482.132-.745v.263a.721.721 0 01-.044.22l-.088.262zm-20.167.614c.116-.234.219-.43.306-.592.088-.16.161-.372.22-.635-.059.058-.146.219-.263.482a4.587 4.587 0 00-.263.745zm20.036 1.184l.131-.35a1.38 1.38 0 00.154-.33.825.825 0 01.197-.328c0-.146.051-.336.154-.57.102-.234.11-.38.022-.439 0 .059-.03.161-.088.307l-.176.439a4.636 4.636 0 01-.131.307c-.03.058-.015.058.044 0-.03.087-.073.211-.132.372-.058.16-.102.3-.131.417l-.04.16-.004.015zm-.307-.964c0-.059.03-.161.088-.307a3.11 3.11 0 00.131-.395c.03.058.015.16-.044.307a5.227 5.227 0 01-.175.395zm-20.87 2.674c.06-.117.147-.285.264-.504.117-.22.146-.314.087-.285-.029.058-.058.139-.087.24-.03.103-.059.14-.088.11a3.36 3.36 0 00.241-.591c.03-.108.062-.192.098-.254l.004-.006-.005.015-.01.047c-.014.088-.006.117.023.088.058-.117.095-.212.11-.285a.787.787 0 01.153-.285l.175-.438.176-.439c-.059.059-.125.183-.198.373-.073.19-.139.358-.197.504-.058-.058-.088-.022-.088.11 0 .131-.029.182-.087.153.058-.058.058-.088 0-.088-.088.263-.198.541-.33.833-.13.293-.211.527-.24.702zm20.563-.92c0-.147.044-.359.132-.636.087-.278.175-.563.263-.855a6.067 6.067 0 01-.176.701 3.11 3.11 0 00-.131.395c-.03.117-.059.248-.088.394zm-20.694-.57c.059.029.124-.074.197-.308a3.76 3.76 0 01.198-.526c0-.087-.044-.007-.132.241a5.2 5.2 0 01-.219.548l-.044.044zm20.423.534l-.021-.004h-.008l.004-.009.033-.083.175-.439c.059-.146.088-.248.088-.307.059.088.03.242-.088.46-.07.132-.13.256-.178.372l-.005.01zm-20.16.079l.045-.092c.047-.096.098-.204.152-.324.074-.161.095-.27.066-.33-.058.205-.124.351-.197.44a.33.33 0 00-.066.306zm22.053-.438c.205-.059.402-.073.592-.044.19.029.314.014.373-.044-.176 0-.336-.015-.482-.044l-.439-.088c-.088.088-.102.161-.044.22zm.501 1.002c-.522.02-1.017.015-1.487-.016a13.07 13.07 0 00-.768-.028h-.055l.036-.084.058-.133.203-.018c.773-.068 1.39-.016 1.848.156l.103.041c-.059.03-.132.03-.22 0-.087-.029-.16-.014-.219.044.146.03.3.037.46.022.081-.007.16-.009.236-.005l.086.007-.28.014zm.332-.17a.29.29 0 01-.263.045 1.701 1.701 0 01-.219-.088c.03-.03.102-.03.22 0a1.2 1.2 0 00.262.044zM29.2 28.41c.029.059.124.073.285.044.16-.029.3-.044.416-.044.058-.058-.007-.073-.197-.043-.19.029-.33.043-.417.043H29.2zm-3.793.483c.22 0 .387-.03.504-.088-.146 0-.307.007-.482.022a1.727 1.727 0 01-.482-.022c.087.058.24.088.46.088zm5.634.11c.146.014.307-.008.482-.067-.058-.029-.197-.05-.416-.065a1.256 1.256 0 00-.548.065c.175.03.336.052.482.066zm-1.36.153c.147-.03.366-.044.658-.044-.058-.059-.16-.073-.306-.044-.147.03-.264.044-.351.044.029-.088-.008-.102-.11-.044a.643.643 0 01-.036.02l-.026.011.024.002a.457.457 0 01.092.03l.056.025zm-2.389.065c.132.015.212-.007.241-.065-.146 0-.255-.008-.328-.022-.073-.015-.154.007-.241.066.087 0 .197.007.328.021zm-1.03.154c.058.058.095.066.11.022.014-.044.036-.037.065.022.059 0 .132-.008.22-.022.087-.015.16-.022.219-.022-.03-.03-.088-.037-.176-.022-.087.015-.16.022-.219.022-.117-.059-.19-.059-.219 0zm-8.17.55l.015-.049a.467.467 0 00.01-.047v-.01l.09-.025.139-.037.033-.007-.016.042-.028.081-.048.012-.146.03-.048.01zm-1.65.064c.087-.059.24-.073.46-.044.219.03.328-.015.328-.132-.146.03-.3.051-.46.066-.16.015-.27.051-.329.11zm-7.103.657a1.6 1.6 0 01.46-.022c.16.015.285-.007.373-.065a1.6 1.6 0 01-.46.022c-.162-.015-.286.007-.373.065zm3.639 1.338a.476.476 0 01-.263-.022c0-.059.087-.073.263-.044.175.029.277.014.306-.044.059 0 .074.007.044.022-.029.014-.044.036-.044.066-.087 0-.19.007-.306.022zm-4.166.24c.234-.058.395-.116.483-.175-.059.03-.19.051-.395.066-.204.015-.278.037-.22.066h.22a.36.36 0 00-.11.022c-.043.014-.036.022.022.022zm-.701.22c.146 0 .329-.007.548-.022.22-.015.329-.051.329-.11a.82.82 0 01-.439.066.82.82 0 00-.438.066zm-7.585.263c.146.03.278 0 .395-.088H.482c-.117 0-.277.03-.482.088.205-.03.38-.03.526 0zm10.26.395c-.059.029-.081.036-.066.021.014-.014.022-.036.022-.065a2.08 2.08 0 01.482-.044c.204 0 .409-.015.614-.044h.24c.103 0 .081.015-.065.044-.292 0-.504.022-.636.066-.131.043-.329.05-.592.022zm-8.221.394c.131.03.226.015.285-.044-.146 0-.197-.007-.154-.022.044-.014.095-.036.154-.065h-.592c-.16 0-.344.029-.548.087a5.11 5.11 0 01-.285.044h.088c.073 0 .175-.007.306-.022.132-.014.242-.022.33-.022.145 0 .284.015.416.044zm2.915.263c.088.03.161.015.22-.044-.03-.029-.14-.036-.33-.022-.19.015-.255.037-.197.066.117-.029.22-.029.307 0zm.46.307c.19 0 .33-.03.417-.088-.087-.029-.226-.036-.416-.021-.19.014-.33.036-.417.065.088.03.227.044.417.044zm36.127.285a.59.59 0 00.417-.022c0-.117-.124-.153-.373-.11-.248.044-.358.096-.328.154.058-.058.153-.066.284-.022zm-33.855-.047c-.053-.037-.116-.043-.189-.019-.087.03-.19.059-.307.088-.175 0-.3.015-.372.044-.073.03.022.03.285 0a1.6 1.6 0 01.46-.022c.16.015.27-.007.329-.066-.059.03-.102.022-.132-.022-.029-.044-.058-.036-.087.022l.013-.025zm2.223.858c.146-.029.307-.051.482-.066.175-.014.336-.036.482-.065-.204 0-.387.007-.548.022-.16.014-.3.05-.416.11zm-.919.086h.024c.074-.006.16-.02.259-.042.131-.03.183-.044.153-.044-.058 0-.138-.007-.24-.022-.103-.014-.169.008-.198.066.03 0 .03.015 0 .044l.002-.002zm26.392.66c.058-.147.124-.264.197-.351a.33.33 0 00.066-.307c0 .03-.008.058-.022.088a.195.195 0 00-.022.087.687.687 0 01-.132.176 1.832 1.832 0 00-.087.307zm-20.3.876c-.03-.087.015-.248.132-.482.117-.234.204-.438.263-.614.058-.117.073-.131.044-.044-.03.088-.073.212-.132.373-.058.16-.124.322-.197.482-.073.161-.11.256-.11.285zm-.438.702c.058-.292.139-.555.24-.79.103-.233.198-.496.286-.788-.03.146-.095.365-.197.657-.103.292-.212.6-.33.92zm19.554.701c.058-.058.146-.212.263-.46.117-.248.19-.46.219-.636-.088.176-.175.344-.263.504-.088.161-.16.359-.22.592zm-19.73.307c-.029-.058-.007-.168.066-.329.073-.16.139-.3.197-.416.03.058.008.16-.065.307a5.783 5.783 0 00-.198.438zm-.394.921a.406.406 0 010-.263c0-.088.058-.249.175-.482 0 .233-.058.482-.175.745zm-1.28 1.388a.803.803 0 01.096-.117c-.03.03-.044.088-.044.176v.087c.117-.233.22-.482.307-.745.088-.263.16-.365.22-.307 0-.117.029-.248.087-.394.058-.146.102-.263.131-.351-.029.03-.043-.015-.043-.132-.088.263-.176.512-.263.746a3.55 3.55 0 01-.263.57c-.03 0-.03-.022 0-.066.029-.044.029-.08 0-.11-.059.146-.14.373-.242.68l.013-.037zm20.878.146c.087 0 .19-.19.307-.57.058-.146.11-.27.153-.372.044-.102.051-.154.022-.154a5.14 5.14 0 00-.241.57c-.073.205-.154.38-.241.526zm-20.914 1.316c0-.117.03-.27.088-.46.059-.19.11-.373.154-.549.043-.175.08-.328.11-.46.028-.131.028-.197 0-.197-.06.146-.125.314-.198.504-.073.19-.132.365-.175.526-.044.16-.066.3-.066.417 0 .116.029.19.087.219zm19.248 1.927l.091-.263c.096-.265.205-.535.325-.81.16-.365.27-.679.329-.942a9.632 9.632 0 01-.241.592c-.073.16-.139.314-.197.46-.117.234-.22.556-.307.965v-.002zm.263.221c.117-.088.16-.197.131-.329-.029-.131.015-.226.132-.285.058 0 .05.051-.022.154-.073.102-.08.153-.022.153a80.976 80.976 0 00.614-1.754c-.059.088-.11.19-.154.307a.734.734 0 01-.153.263.675.675 0 00.11-.263.675.675 0 01.109-.263c-.058-.058-.11.008-.153.198-.044.19-.095.285-.154.285a3.66 3.66 0 00.132-.33c.058-.16.058-.182 0-.065-.059.117-.125.27-.198.46-.073.19-.153.388-.24.592a5.166 5.166 0 01-.176.46c-.059.132-.073.198-.044.198a.412.412 0 00.11-.241c.014-.103.036-.154.065-.154.03.088.03.19 0 .307-.029.117-.058.22-.087.307zm-20.168-.482c.03-.146.102-.35.219-.614.117-.263.146-.424.088-.482-.088.234-.176.453-.263.657-.088.205-.103.351-.044.439zm19.685 1.71c.059-.205.14-.424.242-.658.102-.234.153-.424.153-.57a19.5 19.5 0 00-.241.68c-.073.219-.124.402-.154.548zM31.874 47c.03-.03.073-.102.131-.22a2.84 2.84 0 00.154-.372c.044-.132.08-.248.11-.35.029-.103.029-.14 0-.11a6.575 6.575 0 00-.176.504c-.058.19-.131.372-.219.548zm-.22.263c.06-.117.118-.249.176-.395.059-.146.088-.248.088-.307a5.227 5.227 0 00-.176.395 1.005 1.005 0 00-.087.307zm-7.453 1.096c.059.03.117 0 .176-.088.058-.087.102-.182.131-.285a2.3 2.3 0 00.066-.307c.015-.102.007-.153-.022-.153 0 .088-.044.197-.131.329-.088.131-.161.3-.22.504zM12.32 49.411c-.059 0-.03-.11.088-.329.117-.219.16-.358.131-.416.03-.059.044-.066.044-.022 0 .044.015.066.044.066-.059.117-.11.248-.154.394a.742.742 0 01-.153.307zm18.59.965c.087-.205.182-.38.284-.526.103-.146.198-.307.285-.483-.058-.117-.117-.16-.175-.131a2.58 2.58 0 01-.263.657c-.117.205-.16.366-.132.483zm-.79-.526c0-.117.037-.22.11-.307.073-.088.139-.176.197-.263 0 .058-.036.146-.11.263-.073.117-.138.219-.197.307zm-17.887 2.594v-.008c0-.029-.015-.058-.045-.087.059-.146.147-.351.263-.614.059-.132.114-.26.165-.384l.058-.142-.024.065c-.03.084-.054.159-.072.224l-.017.062a4.774 4.774 0 01-.285.745 4.647 4.647 0 01-.012.045l-.017.065c-.01.03-.015.038-.015.021l.001.008zm-.68-.293c-.015.044.007.037.065-.022-.029-.058-.014-.138.044-.24.059-.103.059-.183 0-.242a6.17 6.17 0 01-.131.439c.029 0 .036.022.022.065zm-2.301.898l.047-.133c.052-.137.116-.282.193-.436.102-.204.153-.38.153-.526-.058.175-.131.373-.219.592-.087.22-.146.387-.175.504v-.001zm1.972.527c0-.029.03-.102.088-.219.087-.234.131-.38.131-.438 0-.059-.015-.051-.044.022-.029.073-.066.168-.11.285a.993.993 0 00-.065.35zm-.877.68c-.088.248-.102.343-.044.285a.857.857 0 00.066-.176.16.16 0 01.034-.073l.015-.01.017-.075a4.28 4.28 0 01.022-.09l.022-.08c.029-.103.043-.212.043-.33-.029.118-.087.3-.175.549zm.438.547l.048-.155c.052-.16.117-.326.194-.502.102-.234.124-.38.065-.438a28.49 28.49 0 01-.197.57 1.61 1.61 0 00-.11.526zm-.57.57c.088-.145.183-.364.285-.657.103-.292.125-.453.066-.482-.029.146-.102.329-.219.548-.117.22-.16.417-.132.592zm3.289-.438c.058-.116.102-.263.131-.438.03-.175.03-.248 0-.22-.029.088-.073.19-.131.308-.059.117-.073.204-.044.263.03-.059.036-.066.022-.022-.015.044-.008.08.022.11zm-3.289 4.34a22.2 22.2 0 00.242-.503c.102-.22.153-.388.153-.504a3.55 3.55 0 00-.241.482c-.102.234-.154.409-.154.526zm-.394.089c-.088.233-.102.321-.044.263.03-.146.08-.278.153-.395.074-.117.11-.205.11-.263-.058.03-.131.16-.22.395zm1.71.613c.058-.058.117-.19.175-.394.059-.205.117-.336.175-.395-.058-.058-.131.044-.219.307-.087.263-.131.424-.131.482zm-4.058 4.215l.046-.093c.044-.088.095-.212.154-.373.058-.16.116-.3.175-.417.058-.175.146-.358.263-.548l.04-.068c.087-.155.117-.271.092-.348-.088.234-.132.314-.132.241 0-.073.015-.168.044-.285-.234.497-.41.994-.526 1.49a8.41 8.41 0 01-.154.395l-.002.006zm.156.608c.087-.263.197-.548.329-.855.131-.307.168-.475.11-.504a4.587 4.587 0 01-.264.745c-.117.263-.175.468-.175.614zm-1.622.79c.087-.234.182-.446.284-.636a.847.847 0 00.11-.548c-.088.233-.16.423-.22.57-.058.146-.116.35-.174.613zm12.47-36.19l-.063.006c-.123.014-.232.026-.329.035-.16.014-.255.029-.285.044-.029.014.103.007.395-.022 0 .029-.007.043-.022.043s-.022.015-.022.044c.088-.029.183-.073.285-.131l.04-.02zm17.405 6.093l.032-.074c.045-.104.094-.211.147-.323.132-.277.197-.49.197-.635-.029.117-.102.27-.219.46s-.146.27-.088.241a.393.393 0 00.11-.219c.015-.088.037-.117.066-.088-.059.117-.103.22-.132.307-.029.088-.058.161-.087.22a1.005 1.005 0 01-.013.062l-.013.049zm-.095.043l-.099.196-.131.263.02.018c.047.03.077-.012.09-.127.014-.132.036-.168.065-.11v.088l.055-.143.052-.128-.02.032a.198.198 0 01-.055.049l-.032.014.044-.087c0-.03.015-.073.044-.132l-.005.01-.028.057zm-20.872 1.417l-.052.138a1.946 1.946 0 00-.176.351.641.641 0 01-.219.307c0 .146-.058.35-.175.614-.117.263-.146.424-.088.482 0-.058.037-.168.11-.329a6.12 6.12 0 01.219-.438c.073-.132.124-.241.153-.33.03-.087.015-.087-.043 0l.131-.394c.059-.175.11-.321.154-.438l-.014.037zm13.72-7.809l-.002-.007-.003-.025c.175 0 .328-.015.46-.044.131-.03.226-.015.285.044l-.008-.005-.015-.013a.093.093 0 00-.055-.01l-.032.006c-.044.015-.065.036-.065.066.116 0 .197-.015.24-.044l.005-.002h-.005a.031.031 0 01-.019-.023l-.002-.019c.058 0 .087-.015.087-.044a5.65 5.65 0 01-.701.044c-.234 0-.41.03-.526.088.117-.03.263-.03.438 0l-.081-.012zm-16.5 5.582l-.126.005c-.132.007-.277.02-.434.037a.627.627 0 00-.33 0c-.102.029-.036.043.198.043.117-.029.234-.043.35-.043.118 0 .235-.015.352-.044l-.01.002zm1.082 6.382l-.008.024-.166.497c-.073.22-.11.343-.11.373 0 .029.06-.132.176-.483.03 0 .044.03.044.088a.82.82 0 00.066-.438l-.002-.061zM12.05 55.903l-.008.031c-.015.042-.038.067-.072.076-.058.014-.073.05-.044.11l-.006-.018-.01.014a.486.486 0 00-.038.112l-.011.067a1.622 1.622 0 01-.11.394c-.117.234-.183.402-.197.504-.015.103.036-.007.153-.328.059-.176.132-.366.22-.57.062-.147.102-.27.12-.372l.003-.02zm17.827-4.656l.047.093c.015.03-.007.088-.066.176-.058.058-.102.11-.131.153-.03.044-.059.022-.088-.066 0 .088-.015.19-.044.307-.03.117-.03.205 0 .263a.95.95 0 01.263-.307l.154-.153.153-.153c0-.059-.022-.088-.066-.088-.044 0-.05-.03-.022-.088.147-.438.33-.87.548-1.293.22-.424.402-.855.548-1.294-.146.293-.27.563-.372.812a1.79 1.79 0 01-.373.591c.322-.701.577-1.351.767-1.95.19-.6.446-1.236.768-1.908l-.022.047.014-.078c.037-.204.076-.397.118-.58l.043-.178c.073-.292.183-.672.329-1.14-.175.439-.35.899-.526 1.381-.176.482-.35.957-.526 1.425-.176.468-.358.892-.548 1.272-.19.38-.388.672-.592.876.029-.087.073-.182.131-.285.059-.102.073-.182.044-.24-.058.145-.131.32-.22.525-.087.205-.174.38-.262.526l.02-.036.014-.036c.245-.662.503-1.27.773-1.825l.135-.273c.366-.716.739-1.542 1.118-2.477 0 .03-.014.073-.043.132-.03.058-.03.102 0 .131a3.11 3.11 0 00.131-.394 3.11 3.11 0 01.132-.395c-.03-.03-.05-.038-.06-.027l-.006.01.09-.265c.106-.303.216-.603.33-.899l.172-.441c.146-.322.285-.636.416-.943.132-.307.27-.606.417-.899l-.09.186-.006.02a.088.088 0 000 .044l.008.013c.015-.058.03-.116.048-.175l.007-.02.033-.068-.026.044.042-.131c.02-.059.042-.117.065-.176l.072-.175a4.43 4.43 0 00.241-.702c.205-.496.322-.891.351-1.183-.058.175-.124.358-.197.548-.073.19-.139.358-.197.504l-.395.79c.03-.147.073-.3.132-.461.058-.161.116-.344.175-.548l.482-.965c-.058-.03-.073-.08-.044-.153a.232.232 0 000-.198c.059-.087.132-.24.22-.46l.285-.723a8.79 8.79 0 01.328-.746c.117-.233.22-.409.307-.526.03-.117.103-.321.22-.614.058-.146.11-.27.153-.372.044-.103.095-.227.153-.373l.059-.114.039-.074.123-.005.788-.026c.029.058.029.08 0 .066-.03-.015-.015.007.044.065.643-.029 1.366-.065 2.17-.11a38.41 38.41 0 012.039-.065.6.6 0 01-.132-.022c-.058-.015-.058-.036 0-.066.175 0 .307-.022.395-.065.087-.044.168-.095.24-.154.074-.058.147-.11.22-.153.073-.044.197-.066.373-.066-.059-.175-.037-.365.065-.57.103-.205.315-.35.636-.438-.03-.03-.073-.03-.131 0-.059.029-.088.014-.088-.044.175-.117.285-.227.329-.33a.447.447 0 00.022-.306 2.3 2.3 0 01-.066-.307.745.745 0 01.066-.373c-.176-.058-.249-.124-.22-.197.03-.073-.043-.139-.219-.197a.806.806 0 01.241-.066c.103-.015.154-.051.154-.11-.146 0-.234-.029-.263-.087.058-.088.073-.161.044-.22-.03-.058-.015-.102.043-.131.03-.058-.007-.08-.11-.066-.101.015-.167-.007-.196-.066.146-.029.204-.102.175-.219-.03-.117.058-.175.263-.175-.058-.059-.088-.11-.088-.154 0-.043-.058-.08-.175-.11.088-.116.117-.226.088-.328a.742.742 0 00-.132-.263l-.175-.22c-.059-.072-.059-.153 0-.24l.04.02.06.03.02.01.01.005-.008-.006c-.009-.012.012-.028.063-.047l.034-.012a1.287 1.287 0 00-.482-.088.976.976 0 01-.439-.088l-.224.016v-.005c-.004-.084.072-.131.228-.14l.062-.002c.22 0 .387-.03.504-.088a.42.42 0 00-.241-.175c-.102-.03-.11-.088-.022-.176.146 0 .278.008.395.022.117.015.146.051.087.11l.001-.002.026-.025.04-.039c.014-.015.065-.022.153-.022.058.03.11.044.153.044.044 0 .037.03-.022.088a.488.488 0 01.22-.044c.087 0 .16-.03.219-.088a.629.629 0 01-.33-.153.629.629 0 00-.328-.154c-.059.03-.073.066-.044.11.03.044.015.066-.044.066-.409.029-.796.021-1.162-.022a3.77 3.77 0 00-1.074.022h.702c.234 0 .424.029.57.087-.614 0-1.177.044-1.688.132a5.58 5.58 0 01-.795.076l-.183.003.035-.08.011-.03.033-.013h-.027l.073-.19.095-.234.1-.234c.102-.234.197-.467.285-.701a4.2 4.2 0 00.22-.658 4.2 4.2 0 00.218-.658.108.108 0 01.028.039v.01l.005-.008.032-.05.023-.034c.146-.351.249-.629.307-.833.059-.205.146-.468.263-.79 0-.263.037-.577.11-.942.073-.366.175-.746.307-1.14l.394-1.184c.132-.394.27-.753.417-1.074-.059.146-.11.292-.154.438-.044.147-.036.234.022.263.205-.496.358-.993.46-1.49.103-.497.227-.965.373-1.403a.438.438 0 00-.11.263c-.014.117-.05.175-.109.175.322-.877.563-1.57.723-2.082.161-.512.33-1.016.505-1.513.029-.058.058-.146.087-.263.03-.117.051-.212.066-.285l.022-.11-.088.22a5.518 5.518 0 00-.175.526 1.67 1.67 0 01-.175.438 12.73 12.73 0 01.438-1.447c.146-.38.263-.803.35-1.271v.002l-.014.042c-.041.122-.053.146-.036.072l.007-.028c.03-.117.03-.176 0-.176a42.381 42.381 0 00-.636 1.688c-.19.541-.402 1.03-.636 1.469.03-.117.088-.3.176-.548.087-.249.102-.343.044-.285a4.92 4.92 0 00-.176.548c-.058.22-.117.373-.175.46.321-.935.658-1.95 1.008-3.047.351-1.096.643-2.038.877-2.828l.044-.153c.03-.102.058-.197.088-.285a.696.696 0 00.044-.197c0-.044-.015-.022-.044.065-.322.673-.629 1.513-.921 2.521a751.872 751.872 0 00-.79 2.74c-.058-.116-.08-.124-.065-.021.015.102-.022.168-.11.197a5.628 5.628 0 01-.263.899c-.117.307-.248.635-.394.986.146-.584.35-1.22.614-1.907.263-.687.453-1.279.57-1.776a3.11 3.11 0 00-.132.395.556.556 0 01-.132.263c.088-.321.176-.592.264-.811.087-.22.102-.387.043-.504-.146.409-.292.84-.438 1.293-.146.453-.322.899-.526 1.337l.002-.004.04-.112c.08-.225.134-.4.164-.526l.013-.06c.03-.145-.03.015-.175.483-.146.35-.285.73-.417 1.14-.131.41-.27.716-.416.92l.113-.353c.079-.237.163-.478.252-.723l.139-.37c.148-.387.256-.72.324-1l.017-.076-.007.004c-.01.002-.02 0-.03-.008l-.02-.016a4.92 4.92 0 00.176-.548c.059-.22.059-.27 0-.154l-.06.104-.036.072.033-.115a3.78 3.78 0 00.091-.447l.016-.14c-.058.059-.095.154-.11.285-.014.132-.05.198-.11.198.06-.117.103-.227.132-.33.03-.102.03-.182 0-.24-.087.321-.212.686-.372 1.096-.161.409-.241.73-.241.964 0-.03.036-.16.11-.394.072-.234.153-.41.24-.527-.117.322-.226.673-.329 1.053-.102.38-.226.701-.372.964.03-.146.08-.3.153-.46.073-.16.124-.329.154-.504a.412.412 0 00-.11.24c-.014.103-.036.125-.066.067 0-.088.03-.161.088-.22.058-.058.058-.102 0-.131a28.49 28.49 0 01-.197.57c-.073.204-.14.336-.198.394.059-.204.117-.394.176-.57.058-.175.102-.336.131-.482.03-.058.052-.08.066-.066.015.015.037-.022.066-.11.03-.175.08-.365.153-.57.073-.204.11-.365.11-.481l.263-.658c.03-.059.037-.095.022-.11-.015-.014-.037.008-.066.066a6.17 6.17 0 01-.131.439c-.147.38-.293.781-.439 1.205-.146.424-.292.753-.438.987l.001-.004.018-.035.079-.158.033-.066c.059-.117.059-.19 0-.22-.204.439-.394.914-.57 1.425-.175.512-.336.928-.482 1.25.146-.672.35-1.3.614-1.885.263-.585.438-1.17.526-1.754l-.014.083-.004-.026-.004-.035c-.015-.132.007-.183.066-.154.058.03.058.103 0 .22-.059.116-.059.175 0 .175.117-.234.16-.424.131-.57-.029-.146.03-.278.176-.395-.059-.117-.059-.285 0-.504.058-.22.131-.453.219-.701.088-.249.183-.497.285-.746.102-.248.168-.475.197-.68.059-.175.095-.38.11-.613a1.25 1.25 0 01.241-.658c0 .059-.022.154-.066.285-.044.132-.036.168.022.11.059-.146.088-.27.088-.373 0-.102.029-.24.087-.416.03 0 .037.022.022.065-.014.044-.007.08.022.11.088-.35.22-.782.395-1.293.175-.512.358-1.03.548-1.557.19-.526.365-1.03.526-1.512.16-.483.27-.855.329-1.118.058-.176.08-.249.066-.22a2.65 2.65 0 00-.088.242c-.044.131-.095.277-.153.438-.059.16-.103.285-.132.373-.03-.03-.044-.059-.044-.088a57.29 57.29 0 01-1.008 2.938c-.351.935-.687 1.695-1.009 2.28-.087.467-.219.935-.394 1.402-.176.468-.336.863-.482 1.184 0-.088.036-.234.11-.438.072-.205.145-.395.218-.57.073-.176.132-.322.176-.439.044-.117.036-.146-.022-.087.146-.293.285-.673.416-1.14.132-.468.212-.76.241-.877-.058.058-.116.204-.175.438-.058.234-.117.38-.175.439.321-.965.613-1.805.877-2.521.263-.716.511-1.469.745-2.258 0-.059-.015-.073-.044-.044-.03.03-.03.015 0-.044.088-.234.117-.336.088-.307-.03.03-.073.146-.132.35-.234.673-.482 1.382-.745 2.127-.263.746-.526 1.41-.79 1.995l-.005-.043c-.01-.138.044-.359.161-.663l.042-.105c.16-.394.285-.738.373-1.03.058-.176.058-.205 0-.088a.673.673 0 00-.088.263c-.117.205-.241.534-.373.987l-.044.147c-.118.38-.242.675-.372.883 0-.059.022-.139.066-.241.043-.102.05-.168.021-.197a12 12 0 01-.175.416.997.997 0 01-.131.241 4.902 4.902 0 01.066-.46c.014-.073.029-.102.043-.088.015.015.007.11-.022.285a2.58 2.58 0 01.263-.658c.117-.204.146-.35.088-.438-.088.205-.132.329-.132.373 0 .044-.058.139-.175.285.03-.059.066-.176.11-.351s.022-.205-.066-.088c0 .117-.015.249-.044.395a2.5 2.5 0 01-.131.438c-.088.146-.205.417-.351.811-.146.395-.3.819-.46 1.272-.161.453-.322.899-.483 1.337-.16.438-.314.775-.46 1.008.175-.496.343-1 .504-1.512.16-.512.27-.928.329-1.25-.059.146-.088.212-.088.198a.66.66 0 01.022-.11c.015-.058.03-.124.044-.197.015-.073.007-.11-.022-.11-.058.175-.117.344-.175.504-.059.161-.117.27-.176.33.205-.585.395-1.155.57-1.71.176-.556.366-1.111.57-1.667l-.167.463-.008.02c-.117.28-.23.584-.337.911l-.08.25c-.131.424-.27.855-.416 1.294-.146.438-.292.847-.439 1.227a7.7 7.7 0 01-.438.965.641.641 0 01-.132.394c-.087.117-.16.249-.219.395.059-.322.154-.628.285-.92a4.09 4.09 0 00.285-.878c.03-.116.03-.153 0-.11a.835.835 0 00-.088.22l-.087.307a.987.987 0 00-.044.197 25.41 25.41 0 00-.482 1.03l-.439.987a3.76 3.76 0 01.241-.68c.103-.219.198-.49.285-.81a3.11 3.11 0 00.132-.395c.03-.117 0-.044-.088.219-.058.146-.11.292-.153.438a5.216 5.216 0 01-.154.439 6.2 6.2 0 00-.285.701c-.102.293-.212.6-.329.921-.116.322-.219.614-.306.877-.088.263-.176.453-.263.57v-.044c0-.03.007-.044.021-.044.015 0 .022-.014.022-.044v-.087c-.087.233-.168.453-.24.657-.074.205-.154.351-.242.439.117-.322.234-.673.35-1.053.118-.38.235-.628.352-.745.058-.234.087-.468.087-.701.03-.088.08-.212.154-.373.073-.16.139-.336.197-.526.058-.19.117-.373.175-.548a6.17 6.17 0 00.132-.439v.002l-.02.045a.78.78 0 00-.034.11l-.012.063c-.014.087-.036.102-.066.043.147-.38.307-.818.483-1.315.175-.497.307-.994.394-1.49-.175.467-.35.971-.526 1.512-.175.54-.365 1.016-.57 1.425l.001-.003.153-.418c.102-.283.204-.571.307-.866l.153-.445c.205-.599.307-1.074.307-1.425a4.933 4.933 0 00-.263.724c-.059.219-.117.46-.176.723-.087-.088-.131-.058-.131.088a8.571 8.571 0 00-.417 1.205c-.073.307-.197.65-.372 1.03 0-.116.014-.226.044-.328a.94.94 0 00.043-.241c-.116.234-.19.438-.219.614-.029.175-.073.307-.131.394 0-.087.036-.256.11-.504.072-.248.094-.358.065-.329-.058.146-.117.3-.175.46-.059.161-.088.3-.088.417-.088 0-.132.015-.132.044-.087.321-.204.709-.35 1.162a8.13 8.13 0 01-.439 1.118c-.263.73-.533 1.454-.81 2.17-.278.716-.563 1.454-.856 2.214-.292.73-.577 1.462-.855 2.192-.277.731-.562 1.462-.855 2.192a.393.393 0 00-.11.22.675.675 0 01-.109.263c-.03.058-.058.131-.088.219-.029.088-.058.16-.087.22l-.395.92a5.783 5.783 0 01-.197.438 5.783 5.783 0 00-.197.439l-.176.438a3.22 3.22 0 01-.035.1l-.02.053-.076.022.069-.005-.008.02a1.744 1.744 0 01-.035.078l-.02.038-.094.001c0 .047-.019.075-.056.084l-.032.004c-.058 0-.102.014-.131.044a7.04 7.04 0 00-.439.021c-.204.015-.416.03-.635.044l-.636.044c-.205.015-.365-.007-.482-.066-.322.088-.716.125-1.184.11-.468-.015-.848.007-1.14.066.175-.03.35-.015.526.044-.468 0-.891.007-1.271.022-.38.014-.775.021-1.184.021-.322 0-.643.015-.965.044l.095-.006.038-.1.088-.003c.1-.006.199-.018.295-.035l.142-.031c-.088 0-.132-.03-.132-.088.468-.029.819-.05 1.053-.066.233-.014.497-.007.789.022a5.19 5.19 0 00-.724-.043c-.277 0-.562.007-.855.021l-.854.044.272-.013.32-.842c.372-.986.757-1.968 1.154-2.947l.402-.977c.54-1.3 1.103-2.608 1.688-3.924.058 0 .073.022.044.066-.03.044-.015.037.044-.022.204-.409.409-.84.613-1.293.205-.453.41-.913.614-1.381.059-.117.117-.227.175-.329a6.728 6.728 0 00.33-.658c.043-.102.094-.212.153-.328.117-.293.204-.497.263-.614a1.02 1.02 0 00.175-.263l.132-.263-.025.024-.107.107c-.058.059-.073.044-.044-.044.117-.204.183-.365.198-.482a.949.949 0 00-.022-.35v-.308c0-.117.058-.292.175-.526-.205 0-.35-.102-.438-.307a1.392 1.392 0 01-.088-.394c0-.059.007-.103.022-.132a.305.305 0 00.022-.131c0-.088.03-.19.088-.307a.47.47 0 00-.088.153c-.03.073-.059.11-.088.11 0-.263-.03-.453-.088-.57-.029-.088-.116-.16-.263-.22a6.887 6.887 0 00-.285-.087c-.102-.03-.182-.117-.24-.263-.088.088-.154.131-.198.131h-.285c-.03 0-.088.059-.175.176.029-.03.043-.088.043-.176l.088-.175v-.22c-.117.176-.204.279-.263.308-.058-.088-.124-.139-.197-.154-.073-.014-.095-.065-.066-.153-.03-.03-.073 0-.131.088-.059.117-.117.19-.176.219.059-.117.073-.19.044-.22a.51.51 0 01-.088-.13c-.087-.089-.087-.22 0-.396-.117.059-.19.066-.219.022-.03-.043-.088-.007-.175.11-.059-.175-.132-.27-.22-.285a.51.51 0 00-.306.066c-.117.029-.22.058-.307.087-.088.03-.161 0-.22-.087l.13-.13.002-.002v-.087l.044-.088a1.949 1.949 0 00-.197.241c-.074.102-.14.197-.198.285-.058.117-.124.22-.197.307-.073.088-.139.16-.197.22-.059.145-.117.27-.176.372l.038-.07-.02-.013c-.08-.063-.067-.197.036-.402l.034-.063c.146-.263.234-.468.263-.614-.088 0-.183.058-.285.175-.102.117-.153.103-.153-.044.087-.233.175-.394.263-.482.058-.058.102-.087.131-.087v.04l.004-.067a.772.772 0 01.052-.21l.032-.07.175-.176c.059-.058.073-.029.044.088.03-.088.073-.197.132-.329.058-.131.073-.226.043-.285-.116.175-.226.285-.328.329-.103.044-.227.153-.373.329-.03.058-.015.087.044.087.058 0 .073.044.044.132l-.044.088-.044.087-.132.176-.087.175-.088.175a.388.388 0 00-.11.176.388.388 0 01-.11.175c-.028.059-.058.117-.087.176l-.088.175c-.146.234-.277.46-.394.68-.117.219-.22.445-.307.68l.002-.005.061-.142c.023-.049.047-.097.073-.146l.083-.146c.088-.146.161-.293.22-.439.087-.146.167-.27.24-.372.074-.103.14-.183.198-.242-.088.176-.176.358-.263.548-.088.19-.176.373-.263.549a3.094 3.094 0 01-.22.504c-.087.16-.16.329-.219.504-.146.35-.292.687-.438 1.008-.088.176-.168.351-.241.526a3.1 3.1 0 01-.285.527l.052-.083.006-.023a.118.118 0 00-.002-.035l-.012-.035-.026.146-.018.03.017-.02-.012.069a5.535 5.535 0 01-.158.631l-.066.196c-.117.322-.264.731-.439 1.228.117-.234.227-.475.329-.723.102-.249.212-.505.329-.768.117-.263.226-.526.329-.789a8.79 8.79 0 01.328-.745c.117-.234.227-.468.33-.702.102-.233.211-.453.328-.657a.94.94 0 00.175-.307.624.624 0 00.11-.132.344.344 0 01.066-.087c.087-.117.219-.263.394-.439-.058.088-.124.183-.197.285a.5.5 0 00-.11.285c.117-.146.227-.329.33-.548.102-.22.211-.402.328-.548l-.031.041-.013.025c-.039.068-.078.14-.117.214l-.058.115c-.059.117-.11.226-.154.328a6.205 6.205 0 01-.328.658 6.728 6.728 0 00-.176.329c-.058.088-.11.183-.153.285a6.205 6.205 0 01-.154.329 4.59 4.59 0 00-.372.614l-.16.317-.17.34c-.116.234-.226.468-.328.702-.102.233-.212.467-.329.701-.029-.03-.022-.08.022-.153s.051-.125.022-.154a2.71 2.71 0 00-.131.417c-.015.066-.04.137-.077.213l-.011.022.005-.002h.018l.02.008a10.02 10.02 0 01-.35.964 3.094 3.094 0 01-.22.505c-.087.16-.16.328-.218.504-.088.175-.169.343-.242.504-.073.16-.153.329-.24.504a3.094 3.094 0 01-.22.504c-.088.161-.16.33-.22.505.06-.176.089-.278.089-.307-.117.263-.22.526-.307.789-.088.263-.19.511-.307.745a6.41 6.41 0 00-.395 1.272c.146-.38.307-.768.482-1.162.176-.395.322-.68.439-.855-.088.292-.22.658-.395 1.096-.175.438-.336.804-.482 1.096.058 0 .066.044.022.132-.044.087-.051.16-.022.219a3.33 3.33 0 00-.241.504c-.102.248-.212.511-.329.79a44.87 44.87 0 01-.35.81c-.118.263-.22.453-.308.57-.087.439-.277.95-.57 1.535-.117.234-.22.451-.308.652l-.064.147.005-.002c.033-.007.067-.01.104-.007l.018.002-.11.014-.021.002-.055.133-.05.124-.038.006-.204.025c-.278.029-.417.117-.417.263.059-.03.161-.066.307-.11h-.001l-.013.032-.032.072-.028.004a7.275 7.275 0 01-.324.048l-.172.02c-.701.073-1.33.095-1.885.065h.373c.131 0 .183-.043.153-.131-.409 0-.81.044-1.205.131-.198.044-.393.084-.587.121l-.23.042.021.006c.013.006.021.015.025.028l.003.023c-.76.058-1.351.102-1.775.131l-1.25.088c-.088 0-.226.007-.416.022-.163.012-.16.02.01.021h.1c.116 0 .255-.014.416-.043.16-.03.285-.015.372.044a9.807 9.807 0 01-1.183.087c-.322 0-.673.059-1.053.176h.088c-.088 0-.131.014-.131.044.496 0 .971-.008 1.424-.022.454-.015.885.007 1.294.065h-.482c-.205 0-.278.03-.22.088.147 0 .307-.015.483-.044.175-.029.307-.029.394 0-.818.059-1.673.124-2.565.198-.891.073-1.673.138-2.345.197-.03 0-.146.014-.35.044-.206.029-.235.044-.089.044.585.058 1.294.036 2.127-.066.833-.103 1.585-.198 2.258-.285-.059.087-.059.117 0 .087.058-.029.117-.014.175.044.234-.058.475-.087.723-.087h.855c-.496.058-1.03.095-1.6.11-.57.014-1.06.05-1.469.109.117 0 .227-.007.33-.022.102-.015.182.007.24.066-.233.029-.453.044-.657.044-.205 0-.351.043-.439.131.38-.03.753-.051 1.118-.066a9.578 9.578 0 011.118.022c-.263 0-.453.015-.57.044-.117.03.015.03.395 0 .321-.03.65-.058.986-.088.337-.029.607-.014.811.044a7.93 7.93 0 01-1.205.088c-.424 0-.767.03-1.03.088.087 0 .131.029.131.087a.92.92 0 00-.438.022 8.396 8.396 0 01-.09.022l-.019.005.078.016c.168.028.34.023.516-.016l.106-.027c.249-.073.52-.08.812-.022a7.08 7.08 0 01-1.075.088c-.336 0-.62.044-.855.131.059.03.14.03.242 0 .102-.029.153-.029.153 0a.828.828 0 01-.263.044c-.088 0-.146.03-.175.088.263-.058.57-.08.92-.066.351.015.614-.022.79-.11-.03 0-.14.008-.33.023-.19.014-.343.007-.46-.022.263-.03.556-.066.877-.11.322-.044.6-.036.833.022a1 1 0 01-.416 0 .697.697 0 00-.417.044c.059.029.132.036.22.022.087-.015.116.007.087.065l-.003.002.042-.006.158-.017c.161-.015.27.007.33.065a4.403 4.403 0 00-.878.088c-.058 0-.087-.015-.087-.044 0-.03-.03-.03-.088 0a.983.983 0 01-.46.066.957.957 0 00-.373.022.896.896 0 01-.285.044h-.285c-.058 0-.088.007-.088.022 0 .014.03.022.088.022h.35c.322-.03.658-.059 1.01-.088.35-.03.642-.015.876.044a.413.413 0 01-.241.022c-.102-.015-.154-.008-.154.022.38.029.775.029 1.184 0 .41-.03.775-.015 1.096.043a5.475 5.475 0 01-1.6.11 3.515 3.515 0 00-1.425.153l.036-.01-.014.01c-.063.05-.098.058-.107.022l-.003-.022c0-.058.052-.08.154-.065.102.014.139-.008.11-.066-.205-.03-.359 0-.46.088-.103.087-.213.073-.33-.044-.087.087-.219.146-.394.175-.176.03-.366.051-.57.066a8.927 8.927 0 01-.636.022c-.22 0-.402.014-.548.044-.146.029-.314.073-.504.131a.878.878 0 01-.548 0 .547.547 0 01.24-.044c.103 0 .125-.014.067-.043-.147 0-.249.021-.307.065-.059.044-.161.051-.307.022h.044l.024-.024.02-.02c-.293.03-.65.052-1.075.066l-1.293.044c-.438.015-.862.036-1.271.066-.41.029-.717.058-.921.087a14.85 14.85 0 00-.095.02l-.064.013c-.033.008-.046.011-.038.011h.197c.117 0 .24-.007.372-.022.132-.014.242-.022.33-.022l-.004.004-.053.053-.031.031a15.99 15.99 0 012.477-.153c.804.014 1.468.05 1.995.11.38-.06.767-.096 1.161-.11a7.661 7.661 0 011.03.022c-.087.029-.211.043-.372.043H8.9c-.088 0-.102.015-.044.044-.234 0-.555.015-.964.044-.41.03-.658.059-.746.088a.158.158 0 00.094.04l.013.002-.209.011c-.359.018-.694.03-1.006.033l-.229.001c-.599 0-1.235.044-1.907.132-.058.03-.066.044-.022.044.044 0 .037.014-.022.044-.204 0-.285.007-.24.022.043.014.138.007.284-.022a23.87 23.87 0 011.82-.11c.628-.015 1.19.007 1.687.066-.087.088-.306.124-.657.11a5.44 5.44 0 00-.877.021c-.146.03-.168.044-.066.044h.241c.146.03.41.022.79-.022.38-.044.686-.036.92.022a.354.354 0 01-.219.022c-.088-.014-.132-.007-.132.022.147 0 .27.007.373.022.102.015.168.022.197.022-.058.058-.175.095-.35.11-.126.01-.139.002-.04-.025l.008-.002-.015.002a.997.997 0 01-.275-.002l-.095-.017c-.19-.044-.314-.037-.372.022h.306c.03 0 .117.029.263.087l.117-.005c.078-.006.156-.02.234-.039.146.03.38.037.702.022.321-.014.672-.029 1.052-.043a14.259 14.259 0 012.017.065c-.41.03-.826.051-1.25.066a5.842 5.842 0 00-1.03.11c.205 0 .234.022.088.065-.147.044-.22.08-.22.11.293-.058.541-.058.746 0a33.516 33.516 0 01-2.85.132c-.088.058-.059.073.088.043.146-.029.248-.043.306-.043.293.029.622.029.987 0l1.096-.088a30.1 30.1 0 011.03-.066c.322-.015.6.007.833.066a.422.422 0 01.351-.022c.117.044.22.066.307.066-.234.058-.475.08-.723.065a2.387 2.387 0 00-.724.066c-.087.03-.117.044-.087.044h.175c.088 0 .175-.007.263-.022l.131-.022c.264 0 .57.015.921.044.35.03.643.044.877.044-.205.03-.402.044-.592.044l-.097.001.097.014c.114.012.241.016.382.013l.144-.006c.249-.015.504-.03.768-.044.263-.015.511-.022.745-.022.167 0 .297.007.39.022l-.025.01c-.025.01-.034.023-.027.039l.013.017c.175-.03.35-.052.526-.066a.82.82 0 01.438.066l-.055-.024-.003.024-.104.001c-.167.004-.346.013-.54.027l-.197.015c-.336.03-.548.015-.635-.043-.088.029-.19.058-.307.087a.556.556 0 00-.263.132h-.79c-.38 0-.657.014-.833.044.205 0 .293.029.264.087a7.105 7.105 0 00-1.118 0c-.424.03-.84.088-1.25.176.41 0 .848-.022 1.315-.066a7.057 7.057 0 011.228-.022 17.04 17.04 0 01-1.49.11c-.498.014-.878.095-1.14.24.233 0 .438-.014.613-.043.176-.03.365-.059.57-.088.03.03.044.059.044.088 0 .03.03.03.088 0 .409.03.745.007 1.008-.066a1.95 1.95 0 01.877-.022.78.78 0 01-.22.066.78.78 0 00-.219.066c.205 0 .38-.015.527-.044.146-.03.248-.03.306 0-.058.058-.19.088-.394.088-.205 0-.292.014-.263.043h.394c.147 0 .263-.029.351-.087 0 .058.015.087.044.087.263-.029.592-.05.986-.065.395-.015.71-.022.943-.022l.415-.01-.086.185a25.11 25.11 0 00-1.061 2.59l-.1.304a.108.108 0 01-.028-.039l-.001-.01-.005.008c-.007.013-.018.03-.032.05l-.023.035a76.494 76.494 0 01-.53 1.339l-.11.268-.061.146c0 .263-.051.592-.154.987-.102.394-.226.804-.372 1.227-.146.424-.307.84-.482 1.25l-.204.477-.039.092.012-.049c.012-.06.007-.11-.014-.145l-.019-.024c-.233.526-.423 1.06-.57 1.6-.087.324-.18.636-.278.934l-.042.124.01-.012a.082.082 0 01.023-.012l.024-.004c-.38.936-.665 1.681-.855 2.236-.19.556-.401 1.096-.635 1.623-.03.058-.066.146-.11.263-.044.116-.073.219-.088.306l-.021.132.012-.037.022-.066.053-.16.22-.548c.087-.22.16-.373.219-.46a29.531 29.531 0 01-.57 1.512 9 9 0 00-.439 1.381c.088-.175.11-.204.066-.087-.044.116-.051.175-.022.175.292-.614.555-1.206.79-1.776.233-.57.482-1.089.745-1.556-.03.058-.066.139-.11.24l-.132.308c-.043.102-.073.19-.087.263-.015.073-.008.095.022.066a8.06 8.06 0 00.197-.57c.073-.234.153-.395.241-.483-.409 1.023-.826 2.105-1.25 3.245-.423 1.14-.796 2.148-1.117 3.025a2.255 2.255 0 00-.176.438.426.426 0 00-.087.22c0 .058.029.029.087-.088.41-.702.79-1.593 1.14-2.674.35-1.082.672-2.061.965-2.938.058.146.087.16.087.044 0-.117.044-.19.132-.22.058-.292.175-.599.35-.92.176-.322.337-.687.483-1.096l-.062.169-.04.11c-.175.47-.368.965-.58 1.487l-.13.316a19.673 19.673 0 00-.679 1.864l.012-.037.023-.073c.091-.28.173-.468.245-.561l.027-.03a14.3 14.3 0 01-.329.832c-.102.234-.138.424-.11.57.205-.467.395-.935.57-1.403.176-.467.38-.935.615-1.403-.147.322-.234.57-.264.746-.029.175.044.014.22-.483.175-.409.343-.825.504-1.25.16-.423.314-.752.46-.986a29.667 29.667 0 01-.592 1.535c-.219.526-.372.964-.46 1.315l.088-.131c-.03.058-.066.146-.11.263-.044.117-.073.219-.088.307-.014.087-.029.153-.043.197-.015.044-.008.036.021-.022.147-.263.264-.57.351-.92.088-.351.234-.688.439-1.01-.146.498-.307.958-.483 1.382a5.63 5.63 0 00-.35 1.118 1.34 1.34 0 00.087-.285c.03-.132.073-.197.132-.197-.059.117-.11.226-.154.328-.043.103-.05.183-.022.242.117-.351.27-.746.46-1.184.19-.439.3-.775.33-1.009v.001l-.013.025c-.027.06-.07.17-.131.33l-.032.083a3.55 3.55 0 01-.263.57l.002-.002.084-.212c.084-.218.163-.446.237-.684l.072-.242c.117-.41.277-.76.482-1.052-.058.175-.131.35-.22.526-.087.175-.145.35-.175.526a.438.438 0 00.11-.263c.015-.117.051-.146.11-.088a.556.556 0 01-.132.263c-.058.059-.058.103 0 .132.088-.205.168-.41.241-.614.073-.205.154-.336.241-.395a12.1 12.1 0 00-.394 1.096c-.03.059-.059.088-.088.088-.03 0-.058.044-.088.132-.029.175-.087.372-.175.592-.088.219-.146.387-.175.504a1.714 1.714 0 00-.132.35c-.029.117-.073.234-.131.351-.059.059-.08.103-.066.132.015.029.036 0 .066-.088.058-.117.117-.263.175-.438.175-.41.35-.848.526-1.316.176-.467.35-.818.526-1.052-.029.088-.08.19-.153.307-.073.117-.08.19-.022.22.234-.468.453-.973.658-1.513.204-.541.409-.987.613-1.338-.204.76-.46 1.447-.767 2.061a7.177 7.177 0 00-.636 1.798v.022c0 .131-.029.182-.087.153-.03-.058-.015-.146.044-.263.058-.117.058-.175 0-.175-.147.263-.212.475-.198.635.015.161-.05.3-.197.417.03.117.007.292-.066.526-.073.234-.16.482-.263.745a31.7 31.7 0 01-.329.811 6.548 6.548 0 00-.263.724c-.058.175-.11.387-.153.635a1.647 1.647 0 01-.285.68c0-.058.03-.16.088-.307.058-.146.058-.175 0-.088a2.889 2.889 0 00-.11.395 2.265 2.265 0 01-.154.438v-.175c-.146.38-.321.84-.526 1.381-.204.54-.423 1.089-.657 1.644a96.177 96.177 0 00-.658 1.6c-.205.512-.35.914-.438 1.206-.059.205-.08.293-.066.263l.11-.24c.058-.132.124-.293.197-.483.073-.19.124-.329.153-.417.02.02.034.036.044.05l.009.012.156-.446c.277-.78.57-1.526.877-2.239l.186-.424c.438-.979.833-1.79 1.183-2.433.147-.497.33-.994.548-1.49.22-.498.402-.907.548-1.228 0 .117-.043.277-.131.482-.088.205-.175.402-.263.592-.088.19-.154.343-.197.46-.044.117-.037.132.022.044-.147.322-.315.73-.505 1.228-.19.497-.3.818-.328.964a.308.308 0 00.045-.061l.014-.025-.021.05c-.23.567-.444 1.086-.642 1.558l-.098.232c-.321.76-.614 1.564-.877 2.411-.03.059-.03.073 0 .044.03-.03.044-.014.044.044-.117.234-.153.336-.11.307.044-.03.095-.146.154-.35.263-.76.555-1.535.877-2.325.321-.789.643-1.476.964-2.06.03.146-.05.431-.24.855s-.344.796-.461 1.118c-.059.175-.066.204-.022.087.044-.116.08-.219.11-.306.058-.088.131-.227.219-.417.087-.19.175-.395.263-.614.087-.219.168-.43.24-.635.074-.205.154-.366.242-.483a.58.58 0 01-.088.285c-.058.103-.073.168-.044.198a3.64 3.64 0 01.198-.417c.073-.131.124-.226.153-.285 0 .059-.007.139-.022.241-.014.102-.036.19-.065.263-.03.073-.052.103-.066.088-.008-.007-.006-.035.005-.082l.006-.022-.033.093a2.189 2.189 0 01-.123.26l-.074.124c-.132.204-.183.365-.154.482.088-.205.139-.329.154-.373.014-.044.08-.153.197-.329l-.132.395c-.058.175-.044.205.044.088.03-.146.066-.293.11-.439.044-.146.095-.307.153-.482.088-.146.22-.424.395-.833a49 49 0 00.548-1.337c.19-.483.387-.958.592-1.425a7.34 7.34 0 01.57-1.096c-.205.526-.41 1.067-.614 1.622-.205.555-.35.994-.439 1.315l.088-.175-.022.11-.044.219-.022.11c.088-.176.169-.351.242-.527.073-.175.138-.307.197-.394a95.92 95.92 0 01-.724 1.841c-.248.614-.49 1.213-.723 1.798 0 .116.03.073.088-.132.058-.205.117-.336.175-.395.175-.35.35-.76.526-1.227.176-.468.344-.935.504-1.403.161-.468.33-.906.505-1.315.175-.41.35-.746.526-1.009.029-.146.087-.285.175-.416.088-.132.16-.27.22-.417a3.591 3.591 0 01-.33.965c-.16.321-.284.628-.372.92-.03.147-.037.198-.022.154.015-.044.044-.124.088-.241.043-.117.095-.234.153-.351l.088-.175c.146-.322.329-.695.548-1.118.219-.424.387-.782.504-1.075l-.006.015-.084.222-.095.24-.1.247c-.102.248-.212.533-.329.855-.058.146-.11.292-.153.438-.044.146-.008.088.11-.175a19.778 19.778 0 01.35-.965c.117-.175.234-.43.35-.767.118-.336.242-.672.373-1.008.132-.336.256-.643.373-.921.117-.278.22-.475.307-.592a.924.924 0 01-.029.186v.003l.07-.144c.055-.115.106-.228.154-.34l.068-.165c.088-.22.175-.388.263-.504l-.073.165c-.097.225-.195.474-.292.745l-.073.208c-.146.423-.278.694-.395.81a1.565 1.565 0 00-.131.395.896.896 0 000 .395c-.059.087-.125.219-.198.394-.073.176-.153.358-.24.548a7.151 7.151 0 00-.308.782l-.008.026.004-.01c.016-.026.038-.029.068-.007l.024.02-.592 1.382a11.46 11.46 0 00-.548 1.6c.234-.497.46-1.045.68-1.644.219-.6.445-1.104.68-1.513-.235.585-.483 1.191-.746 1.82-.263.628-.41 1.147-.439 1.556.147-.292.256-.555.33-.79.072-.233.153-.481.24-.744.059 0 .103-.03.132-.088.234-.526.395-.957.482-1.293.088-.337.249-.71.482-1.118l-.087.35a1.2 1.2 0 00-.044.263c.117-.234.205-.445.263-.635a1.68 1.68 0 01.175-.417c0 .088-.05.263-.153.526-.102.263-.139.38-.11.35.059-.145.132-.306.22-.481.087-.176.131-.322.131-.439.059 0 .102-.014.132-.044.117-.35.27-.767.46-1.25.19-.481.358-.883.504-1.205.672-1.549 1.337-3.12 1.995-4.713a463.669 463.669 0 011.995-4.757c.146-.35.3-.694.46-1.03.161-.336.314-.68.46-1.03l.362-.862.603-.015c.22-.022.434-.036.645-.042l.21-.002h.811a96.478 96.478 0 004.425-.289l.772-.071-.22.554-.734 1.864-.363.923a386.024 386.024 0 01-1.468 3.683c-.059 0-.08-.022-.066-.066.014-.044-.008-.036-.066.022a84.28 84.28 0 00-1.03 2.565c-.366.95-.694 1.746-.987 2.39.03-.03.066-.074.11-.132.044-.059.051-.044.022.044-.088.204-.132.365-.132.482 0 .117.008.226.022.329.015.102.03.212.044.329.015.116-.022.277-.11.482.205-.03.373.058.505.263.131.204.138.511.021.92.03 0 .052-.043.066-.13.015-.089.051-.118.11-.089.03.263.08.439.153.526.073.088.161.14.263.154a2.3 2.3 0 01.307.066.56.56 0 01.285.219c.146-.175.249-.227.307-.154.059.074.146.022.263-.153a.728.728 0 01-.066.285c-.043.102-.036.183.022.241.088-.204.161-.307.22-.307.058.088.124.132.197.132.073 0 .11.044.11.131.058.059.094.03.11-.087.014-.117.05-.19.109-.22-.059.176-.022.27.11.285.13.015.153.14.065.373.088-.058.154-.073.197-.044.044.03.095 0 .154-.087.058.146.139.219.241.219a.94.94 0 00.329-.066c.117-.044.219-.08.307-.11.087-.029.146 0 .175.088-.088.146-.117.197-.088.153.03-.043.03-.007 0 .11.117-.117.22-.285.307-.504.088-.22.19-.373.307-.46l.094-.261.023.008c.078.04.078.154 0 .341l-.03.065c-.116.248-.175.446-.175.592a.465.465 0 00.285-.22c.074-.116.125-.102.154.045a2.06 2.06 0 01-.197.438c-.057.09-.1.12-.131.087l-.004-.005z" fill="#FFF" fill-rule="nonzero"/></g></svg>
