<?xml version="1.0" standalone="no"?>
<!DOCTYPE svg PUBLIC "-//W3C//DTD SVG 20010904//EN"
 "http://www.w3.org/TR/2001/REC-SVG-20010904/DTD/svg10.dtd">
<svg version="1.0" xmlns="http://www.w3.org/2000/svg"
 width="720.000000pt" height="720.000000pt" viewBox="0 0 720.000000 720.000000"
 preserveAspectRatio="xMidYMid meet">

<g transform="translate(0.000000,720.000000) scale(0.100000,-0.100000)"
fill="#000000" stroke="none">
<path d="M3241 6877 c-18 -7 -44 -25 -57 -40 -13 -15 -31 -27 -41 -27 -16 0
-75 -15 -303 -76 -61 -17 -314 -136 -345 -163 -25 -22 -173 -110 -242 -145
-29 -14 -75 -45 -102 -68 -96 -82 -215 -167 -310 -219 -30 -18 -146 -158 -221
-268 -79 -117 -185 -372 -229 -546 -11 -44 -31 -123 -44 -175 -48 -181 -58
-246 -67 -422 -5 -97 -13 -194 -19 -215 -6 -21 -19 -137 -31 -258 -24 -263
-26 -523 -5 -830 8 -121 15 -285 15 -365 0 -163 18 -295 60 -450 16 -58 34
-145 39 -195 24 -196 34 -262 48 -310 32 -104 152 -316 232 -411 316 -373 410
-465 516 -501 17 -6 52 -24 79 -41 42 -27 51 -39 70 -94 24 -65 69 -140 146
-242 81 -106 150 -200 184 -251 44 -66 198 -219 236 -235 43 -18 78 -5 124 46
22 24 48 44 57 44 10 0 57 -40 105 -89 48 -49 99 -95 114 -101 36 -15 92 7
116 47 36 57 42 57 93 -5 74 -88 116 -122 155 -122 33 0 92 35 130 78 l19 22
29 -25 c45 -38 72 -32 136 28 31 29 76 69 99 89 l42 37 30 -29 c66 -67 140
-31 370 180 116 106 176 184 222 286 17 38 33 75 37 82 4 7 38 24 75 37 68 24
78 29 152 84 22 17 56 39 76 50 72 39 365 352 500 531 48 64 112 232 138 357
12 56 32 133 46 171 39 109 45 158 55 447 7 235 11 280 31 350 22 74 23 100
24 335 0 254 -17 589 -32 613 -4 6 -10 140 -14 297 -6 270 -8 289 -33 370 -22
71 -28 115 -36 270 -5 102 -13 203 -18 225 -22 99 -128 338 -242 545 -32 58
-64 125 -70 150 -27 102 -71 161 -215 285 -49 43 -139 127 -200 186 -60 60
-141 131 -180 158 -38 27 -104 81 -145 120 -85 81 -156 121 -337 190 -203 78
-233 91 -275 112 -46 24 -183 54 -284 63 -39 4 -93 14 -120 22 -68 21 -337 29
-383 11z m369 -151 c25 -7 79 -17 120 -21 104 -10 204 -31 248 -54 36 -18 196
-82 332 -134 117 -44 174 -79 260 -160 47 -44 110 -95 140 -115 30 -19 116
-94 190 -166 74 -73 173 -165 218 -206 90 -80 103 -99 134 -194 11 -34 42
-101 70 -150 92 -164 207 -415 229 -501 6 -22 14 -125 19 -230 8 -168 12 -199
36 -270 27 -78 28 -88 34 -365 3 -157 9 -290 13 -297 14 -23 32 -361 31 -603
0 -224 -2 -252 -22 -320 -20 -65 -24 -111 -32 -350 -10 -297 -13 -319 -58
-455 -17 -49 -37 -126 -45 -170 -20 -113 -73 -239 -129 -310 -27 -33 -66 -82
-87 -110 -55 -70 -320 -337 -363 -366 -19 -13 -62 -42 -94 -63 -33 -22 -86
-47 -119 -57 -81 -23 -320 -40 -600 -42 -229 -1 -230 -1 -304 27 l-75 28 -297
-12 c-285 -11 -302 -11 -440 10 -155 23 -301 58 -370 90 -26 11 -66 20 -97 20
-65 0 -139 28 -323 122 -159 81 -172 93 -371 324 -175 204 -209 253 -287 414
l-61 125 -20 182 c-13 121 -30 217 -50 285 -41 144 -60 287 -60 457 0 80 -7
245 -15 366 -8 121 -15 298 -15 392 0 177 32 590 50 653 6 19 15 116 20 215 5
99 16 209 25 245 8 36 19 83 24 105 20 89 81 315 100 373 31 90 107 262 145
325 59 98 185 247 234 277 75 46 249 170 295 210 23 20 78 56 122 80 44 23
117 67 162 97 184 120 457 222 655 243 46 5 106 16 133 24 28 9 66 16 86 16
19 0 44 7 55 15 24 18 95 19 154 1z"/>
<path d="M4315 3881 c-112 -28 -172 -50 -302 -113 -149 -71 -158 -82 -151
-197 8 -126 50 -174 131 -146 34 12 37 11 37 -6 0 -35 28 -89 96 -179 102
-138 206 -202 360 -222 70 -9 100 -7 210 11 235 38 377 99 451 192 40 52 92
89 122 89 24 0 90 53 101 81 26 62 -7 131 -121 254 -44 46 -82 75 -142 105
-45 23 -94 51 -109 61 -15 11 -57 34 -95 52 l-68 32 -225 2 c-185 1 -237 -2
-295 -16z m70 -500 c16 -29 43 -64 59 -78 30 -25 34 -26 126 -20 53 3 108 10
122 16 44 17 93 67 118 123 13 29 25 55 26 56 2 2 34 -13 73 -35 89 -48 94
-72 29 -125 -102 -82 -199 -113 -329 -105 -95 5 -286 39 -318 57 -19 10 -111
175 -111 200 0 5 6 10 13 10 7 0 44 15 82 33 l70 34 6 -57 c3 -34 17 -77 34
-109z"/>
<path d="M2165 3825 c-44 -19 -89 -38 -100 -41 -53 -17 -304 -159 -335 -189
-32 -32 -35 -40 -38 -106 l-4 -70 48 -47 c62 -59 154 -106 192 -99 24 4 32 -2
77 -65 108 -152 191 -198 365 -206 157 -6 201 5 416 103 39 18 86 48 105 67
45 44 149 203 162 245 8 26 16 33 36 33 52 0 103 50 127 126 14 44 15 55 3 79
-22 45 -60 66 -135 75 -38 5 -82 13 -99 18 -16 6 -66 18 -110 27 -44 10 -118
30 -165 45 -76 25 -104 29 -275 34 l-190 7 -80 -36z m676 -305 c25 -14 24 -34
-6 -98 -24 -52 -120 -152 -174 -181 -18 -10 -74 -16 -188 -19 l-162 -5 -63 31
c-35 17 -88 54 -118 82 -53 50 -54 52 -35 66 19 15 110 64 118 64 2 0 12 -26
21 -58 10 -32 33 -76 51 -98 32 -37 35 -39 106 -42 107 -5 174 22 250 102 35
36 68 83 81 114 21 50 23 52 60 52 22 0 48 -5 59 -10z"/>
<path d="M4059 2678 c-12 -13 -37 -48 -57 -80 -72 -110 -215 -287 -280 -346
-84 -75 -125 -83 -282 -52 -57 11 -75 21 -140 76 -41 34 -92 80 -113 102 -42
43 -137 198 -137 223 0 9 -9 28 -21 43 -28 36 -70 35 -99 -1 -29 -37 -21 -86
30 -180 46 -82 48 -93 20 -93 -44 0 -173 -77 -273 -164 -62 -54 -224 -261
-263 -336 -34 -65 -62 -131 -70 -163 -19 -79 34 -153 156 -215 69 -36 91 -42
143 -42 74 0 136 27 174 76 23 30 28 33 42 21 33 -29 113 -47 205 -47 109 0
145 14 243 93 38 29 77 59 89 65 35 18 167 26 195 12 13 -8 67 -29 119 -47
121 -43 257 -54 364 -29 59 14 71 14 85 2 40 -34 108 -59 177 -64 68 -4 76 -2
175 42 58 26 116 60 132 77 24 26 27 37 27 97 0 138 -26 189 -191 375 -139
157 -197 199 -334 242 -60 18 -119 35 -130 37 -17 3 -16 7 16 43 60 68 112
157 111 188 -2 62 -72 90 -113 45z m-216 -658 c17 -21 54 -75 82 -121 27 -46
66 -103 87 -125 21 -23 38 -44 38 -48 0 -9 -111 -7 -168 4 -28 5 -101 28 -162
51 -108 40 -115 42 -193 35 -119 -9 -147 -20 -242 -91 -112 -84 -113 -85 -191
-85 -65 0 -174 26 -174 41 0 12 127 179 174 229 23 25 62 69 85 98 24 29 59
59 78 67 36 15 34 15 188 -19 109 -25 190 -21 250 12 l50 28 33 -19 c18 -11
47 -36 65 -57z"/>
</g>
</svg>
